<?xml version="1.0" encoding="UTF-8"?>
<svg xmlns="http://www.w3.org/2000/svg" xmlns:xlink="http://www.w3.org/1999/xlink" width="1080" height="1080" viewBox="0 0 1080 1080">
<defs>
<g>
<g id="glyph-0-0">
<path d="M 1.75 -1.53125 C 1.816406 -1.515625 1.871094 -1.488281 1.917969 -1.441406 C 1.964844 -1.394531 2.023438 -1.300781 2.089844 -1.164062 L 2.675781 0 L 1.972656 0 L 1.582031 -0.816406 C 1.570312 -0.839844 1.554688 -0.875 1.535156 -0.914062 C 1.421875 -1.160156 1.289062 -1.28125 1.132812 -1.28125 L 0.929688 -1.28125 L 0.929688 0 L 0.289062 0 L 0.289062 -3.238281 L 1.214844 -3.238281 C 1.628906 -3.238281 1.929688 -3.167969 2.109375 -3.019531 C 2.292969 -2.871094 2.382812 -2.632812 2.382812 -2.296875 C 2.382812 -2.074219 2.328125 -1.898438 2.21875 -1.765625 C 2.109375 -1.632812 1.957031 -1.554688 1.75 -1.53125 Z M 0.929688 -2.703125 L 0.929688 -1.820312 L 1.230469 -1.820312 C 1.40625 -1.820312 1.53125 -1.851562 1.605469 -1.921875 C 1.683594 -1.992188 1.722656 -2.105469 1.722656 -2.261719 C 1.722656 -2.417969 1.683594 -2.53125 1.609375 -2.601562 C 1.535156 -2.667969 1.40625 -2.703125 1.230469 -2.703125 Z "/>
</g>
<g id="glyph-0-1">
<path d="M 2.382812 0 L 0.363281 0 L 0.363281 -3.238281 L 2.382812 -3.238281 L 2.382812 -2.675781 L 1.003906 -2.675781 L 1.003906 -1.976562 L 2.253906 -1.976562 L 2.253906 -1.414062 L 1.003906 -1.414062 L 1.003906 -0.5625 L 2.382812 -0.5625 Z "/>
</g>
<g id="glyph-0-2">
<path d="M 0.257812 -3.238281 L 0.945312 -3.238281 L 1.847656 -0.886719 L 1.847656 -3.238281 L 2.414062 -3.238281 L 2.414062 0 L 1.730469 0 L 0.824219 -2.355469 L 0.824219 0 L 0.257812 0 Z "/>
</g>
<g id="glyph-0-3">
<path d="M 0.9375 -2.664062 L 0.9375 -0.578125 L 1.109375 -0.578125 C 1.363281 -0.578125 1.542969 -0.65625 1.648438 -0.816406 C 1.757812 -0.972656 1.808594 -1.242188 1.808594 -1.625 C 1.808594 -2 1.757812 -2.269531 1.648438 -2.425781 C 1.542969 -2.582031 1.363281 -2.664062 1.109375 -2.664062 Z M 0.296875 -3.238281 L 0.984375 -3.238281 C 1.511719 -3.238281 1.894531 -3.113281 2.125 -2.859375 C 2.359375 -2.609375 2.476562 -2.195312 2.476562 -1.625 C 2.476562 -1.050781 2.359375 -0.632812 2.125 -0.378906 C 1.894531 -0.125 1.511719 0 0.984375 0 L 0.296875 0 Z "/>
</g>
</g>
</defs>
<g fill="rgb(34.509804%, 76.862745%, 86.666667%)" fill-opacity="1">
<use xlink:href="#glyph-0-0" x="30" y="24.125"/>
<use xlink:href="#glyph-0-1" x="33" y="24.125"/>
<use xlink:href="#glyph-0-2" x="36" y="24.125"/>
<use xlink:href="#glyph-0-3" x="39" y="24.125"/>
<use xlink:href="#glyph-0-1" x="42" y="24.125"/>
<use xlink:href="#glyph-0-0" x="45" y="24.125"/>
</g>
</svg>
