<?xml version="1.0" encoding="UTF-8"?>
<svg xmlns="http://www.w3.org/2000/svg" xmlns:xlink="http://www.w3.org/1999/xlink" width="1080" height="1080" viewBox="0 0 1080 1080">
<defs>
<g>
<g id="glyph-0-0">
<path d="M 0.613281 -6.347656 L 0.613281 0 L 2.007812 0 L 2.007812 -2.621094 L 4.667969 -2.621094 L 4.667969 -3.707031 L 2.007812 -3.707031 L 2.007812 -5.171875 L 5.074219 -5.171875 L 5.074219 -6.347656 Z "/>
</g>
<g id="glyph-0-1">
<path d="M 4.792969 0 L 4.792969 -4.597656 L 3.527344 -4.597656 L 3.527344 -2.1875 C 3.527344 -1.71875 3.453125 -1.382812 3.296875 -1.179688 C 3.144531 -0.972656 2.894531 -0.871094 2.550781 -0.871094 C 2.25 -0.871094 2.039062 -0.964844 1.921875 -1.152344 C 1.800781 -1.339844 1.742188 -1.621094 1.742188 -2 L 1.742188 -4.597656 L 0.480469 -4.597656 L 0.480469 -1.769531 C 0.480469 -1.484375 0.503906 -1.226562 0.554688 -0.992188 C 0.605469 -0.757812 0.695312 -0.558594 0.816406 -0.394531 C 0.941406 -0.230469 1.113281 -0.105469 1.328125 -0.0195312 C 1.546875 0.0703125 1.824219 0.117188 2.160156 0.117188 C 2.425781 0.117188 2.6875 0.0546875 2.941406 -0.0625 C 3.195312 -0.179688 3.40625 -0.375 3.566406 -0.640625 L 3.589844 -0.640625 L 3.589844 0 Z "/>
</g>
<g id="glyph-0-2">
<path d="M 0.515625 -6.347656 L 0.515625 0 L 1.777344 0 L 1.777344 -6.347656 Z "/>
</g>
<g id="glyph-0-3">
<path d="M 2.746094 0.570312 L 4.667969 -4.597656 L 3.359375 -4.597656 L 2.355469 -1.449219 L 2.339844 -1.449219 L 1.296875 -4.597656 L -0.0429688 -4.597656 L 1.566406 -0.285156 C 1.601562 -0.195312 1.617188 -0.101562 1.617188 0 C 1.617188 0.136719 1.578125 0.261719 1.496094 0.375 C 1.417969 0.488281 1.296875 0.550781 1.128906 0.570312 C 1.003906 0.574219 0.878906 0.570312 0.753906 0.558594 C 0.628906 0.546875 0.507812 0.535156 0.390625 0.523438 L 0.390625 1.566406 C 0.519531 1.578125 0.652344 1.585938 0.777344 1.59375 C 0.90625 1.605469 1.035156 1.609375 1.164062 1.609375 C 1.597656 1.609375 1.933594 1.527344 2.179688 1.367188 C 2.421875 1.207031 2.609375 0.941406 2.746094 0.570312 Z "/>
</g>
<g id="glyph-0-4">
<rect x="0" y="0" width="0" height="0" mask="url(#mask-0)"/>
</g>
<g id="glyph-0-5">
<path d="M 2.214844 -2.453125 L 3.039062 -4.78125 L 3.058594 -4.78125 L 3.859375 -2.453125 Z M 2.347656 -6.347656 L -0.0546875 0 L 1.351562 0 L 1.847656 -1.414062 L 4.222656 -1.414062 L 4.703125 0 L 6.152344 0 L 3.777344 -6.347656 Z "/>
</g>
<g id="glyph-0-6">
<path d="M 2.082031 -4.597656 L 2.082031 -5.972656 L 0.816406 -5.972656 L 0.816406 -4.597656 L 0.0546875 -4.597656 L 0.0546875 -3.75 L 0.816406 -3.75 L 0.816406 -1.039062 C 0.816406 -0.808594 0.855469 -0.621094 0.933594 -0.480469 C 1.011719 -0.339844 1.117188 -0.226562 1.25 -0.152344 C 1.382812 -0.0742188 1.535156 -0.0234375 1.710938 0.00390625 C 1.886719 0.03125 2.070312 0.0429688 2.265625 0.0429688 C 2.390625 0.0429688 2.519531 0.0429688 2.648438 0.0351562 C 2.777344 0.03125 2.898438 0.0195312 3.003906 0 L 3.003906 -0.976562 C 2.945312 -0.964844 2.882812 -0.957031 2.816406 -0.953125 C 2.753906 -0.945312 2.683594 -0.941406 2.613281 -0.941406 C 2.398438 -0.941406 2.257812 -0.976562 2.1875 -1.050781 C 2.117188 -1.121094 2.082031 -1.261719 2.082031 -1.476562 L 2.082031 -3.75 L 3.003906 -3.75 L 3.003906 -4.597656 Z "/>
</g>
<g id="glyph-0-7">
<path d="M 1.601562 -2.292969 C 1.601562 -2.476562 1.617188 -2.65625 1.652344 -2.835938 C 1.6875 -3.011719 1.75 -3.171875 1.835938 -3.308594 C 1.921875 -3.445312 2.035156 -3.554688 2.179688 -3.640625 C 2.320312 -3.726562 2.496094 -3.769531 2.710938 -3.769531 C 2.925781 -3.769531 3.105469 -3.726562 3.25 -3.640625 C 3.394531 -3.554688 3.511719 -3.441406 3.597656 -3.308594 C 3.683594 -3.171875 3.742188 -3.011719 3.777344 -2.835938 C 3.8125 -2.65625 3.832031 -2.476562 3.832031 -2.292969 C 3.832031 -2.109375 3.8125 -1.929688 3.777344 -1.753906 C 3.742188 -1.582031 3.683594 -1.421875 3.597656 -1.285156 C 3.511719 -1.144531 3.394531 -1.035156 3.25 -0.953125 C 3.105469 -0.867188 2.925781 -0.828125 2.710938 -0.828125 C 2.496094 -0.828125 2.320312 -0.867188 2.179688 -0.953125 C 2.035156 -1.035156 1.921875 -1.144531 1.835938 -1.285156 C 1.75 -1.425781 1.6875 -1.582031 1.652344 -1.753906 C 1.617188 -1.929688 1.601562 -2.109375 1.601562 -2.292969 Z M 0.335938 -2.292969 C 0.335938 -1.925781 0.394531 -1.59375 0.507812 -1.296875 C 0.621094 -1 0.78125 -0.75 0.988281 -0.539062 C 1.195312 -0.328125 1.441406 -0.164062 1.734375 -0.0546875 C 2.023438 0.0585938 2.351562 0.117188 2.710938 0.117188 C 3.074219 0.117188 3.398438 0.0585938 3.695312 -0.0546875 C 3.988281 -0.167969 4.238281 -0.328125 4.445312 -0.539062 C 4.652344 -0.75 4.8125 -1 4.925781 -1.296875 C 5.039062 -1.59375 5.09375 -1.925781 5.09375 -2.292969 C 5.09375 -2.660156 5.039062 -2.996094 4.925781 -3.292969 C 4.8125 -3.59375 4.652344 -3.847656 4.445312 -4.058594 C 4.238281 -4.269531 3.988281 -4.429688 3.695312 -4.546875 C 3.402344 -4.664062 3.074219 -4.71875 2.710938 -4.71875 C 2.351562 -4.71875 2.023438 -4.664062 1.734375 -4.546875 C 1.445312 -4.429688 1.195312 -4.269531 0.988281 -4.058594 C 0.78125 -3.847656 0.621094 -3.59375 0.507812 -3.292969 C 0.394531 -2.992188 0.335938 -2.660156 0.335938 -2.292969 Z "/>
</g>
<g id="glyph-0-8">
<path d="M 0.515625 -4.597656 L 0.515625 0 L 1.777344 0 L 1.777344 -2.667969 C 1.777344 -2.890625 1.808594 -3.074219 1.875 -3.214844 C 1.941406 -3.351562 2.019531 -3.460938 2.109375 -3.535156 C 2.203125 -3.609375 2.296875 -3.65625 2.394531 -3.683594 C 2.492188 -3.710938 2.570312 -3.726562 2.632812 -3.726562 C 2.832031 -3.726562 2.984375 -3.691406 3.089844 -3.621094 C 3.191406 -3.554688 3.265625 -3.464844 3.3125 -3.351562 C 3.355469 -3.238281 3.382812 -3.117188 3.386719 -2.984375 C 3.394531 -2.851562 3.394531 -2.714844 3.394531 -2.578125 L 3.394531 0 L 4.65625 0 L 4.65625 -2.558594 C 4.65625 -2.703125 4.667969 -2.84375 4.6875 -2.984375 C 4.710938 -3.121094 4.75 -3.246094 4.8125 -3.355469 C 4.875 -3.464844 4.960938 -3.554688 5.070312 -3.621094 C 5.179688 -3.691406 5.324219 -3.726562 5.503906 -3.726562 C 5.679688 -3.726562 5.820312 -3.695312 5.925781 -3.636719 C 6.027344 -3.578125 6.105469 -3.496094 6.160156 -3.394531 C 6.214844 -3.292969 6.246094 -3.175781 6.257812 -3.039062 C 6.269531 -2.902344 6.277344 -2.757812 6.277344 -2.605469 L 6.277344 0 L 7.539062 0 L 7.539062 -3.074219 C 7.539062 -3.371094 7.496094 -3.625 7.414062 -3.835938 C 7.332031 -4.046875 7.214844 -4.214844 7.066406 -4.347656 C 6.917969 -4.476562 6.742188 -4.570312 6.535156 -4.632812 C 6.328125 -4.691406 6.101562 -4.71875 5.859375 -4.71875 C 5.539062 -4.71875 5.261719 -4.644531 5.027344 -4.488281 C 4.792969 -4.335938 4.609375 -4.15625 4.472656 -3.957031 C 4.347656 -4.242188 4.164062 -4.4375 3.925781 -4.550781 C 3.683594 -4.664062 3.417969 -4.71875 3.128906 -4.71875 C 2.828125 -4.71875 2.558594 -4.65625 2.324219 -4.523438 C 2.089844 -4.394531 1.890625 -4.210938 1.722656 -3.972656 L 1.707031 -3.972656 L 1.707031 -4.597656 Z "/>
</g>
<g id="glyph-0-9">
<path d="M 0.425781 -3.183594 C 0.445312 -3.480469 0.519531 -3.726562 0.648438 -3.921875 C 0.777344 -4.117188 0.945312 -4.273438 1.148438 -4.390625 C 1.347656 -4.507812 1.574219 -4.59375 1.828125 -4.644531 C 2.078125 -4.695312 2.332031 -4.71875 2.585938 -4.71875 C 2.816406 -4.71875 3.050781 -4.703125 3.289062 -4.671875 C 3.527344 -4.640625 3.742188 -4.574219 3.9375 -4.480469 C 4.132812 -4.386719 4.292969 -4.253906 4.417969 -4.085938 C 4.542969 -3.917969 4.605469 -3.691406 4.605469 -3.414062 L 4.605469 -1.023438 C 4.605469 -0.816406 4.617188 -0.617188 4.640625 -0.425781 C 4.664062 -0.238281 4.707031 -0.09375 4.765625 0 L 3.484375 0 C 3.460938 -0.0703125 3.441406 -0.144531 3.425781 -0.21875 C 3.410156 -0.292969 3.402344 -0.367188 3.394531 -0.445312 C 3.195312 -0.238281 2.957031 -0.09375 2.683594 -0.0078125 C 2.410156 0.0742188 2.132812 0.117188 1.847656 0.117188 C 1.628906 0.117188 1.425781 0.0898438 1.234375 0.0351562 C 1.046875 -0.0195312 0.878906 -0.101562 0.738281 -0.214844 C 0.597656 -0.328125 0.484375 -0.46875 0.40625 -0.640625 C 0.324219 -0.8125 0.285156 -1.015625 0.285156 -1.253906 C 0.285156 -1.515625 0.332031 -1.730469 0.421875 -1.898438 C 0.515625 -2.066406 0.632812 -2.203125 0.777344 -2.300781 C 0.921875 -2.402344 1.089844 -2.480469 1.277344 -2.527344 C 1.464844 -2.578125 1.652344 -2.621094 1.839844 -2.648438 C 2.03125 -2.679688 2.214844 -2.703125 2.398438 -2.71875 C 2.582031 -2.738281 2.746094 -2.765625 2.890625 -2.800781 C 3.03125 -2.835938 3.144531 -2.886719 3.226562 -2.957031 C 3.308594 -3.023438 3.347656 -3.125 3.34375 -3.253906 C 3.34375 -3.390625 3.320312 -3.5 3.277344 -3.578125 C 3.230469 -3.65625 3.171875 -3.71875 3.097656 -3.765625 C 3.023438 -3.808594 2.9375 -3.839844 2.839844 -3.855469 C 2.742188 -3.867188 2.636719 -3.875 2.523438 -3.875 C 2.273438 -3.875 2.082031 -3.824219 1.9375 -3.714844 C 1.796875 -3.609375 1.710938 -3.429688 1.6875 -3.183594 Z M 3.34375 -2.25 C 3.289062 -2.203125 3.222656 -2.164062 3.140625 -2.136719 C 3.0625 -2.109375 2.976562 -2.089844 2.882812 -2.070312 C 2.792969 -2.054688 2.695312 -2.039062 2.597656 -2.027344 C 2.496094 -2.015625 2.394531 -2 2.292969 -1.980469 C 2.199219 -1.964844 2.105469 -1.941406 2.011719 -1.910156 C 1.921875 -1.882812 1.839844 -1.839844 1.773438 -1.792969 C 1.707031 -1.742188 1.652344 -1.675781 1.609375 -1.601562 C 1.566406 -1.523438 1.546875 -1.425781 1.546875 -1.308594 C 1.546875 -1.195312 1.566406 -1.097656 1.609375 -1.023438 C 1.652344 -0.945312 1.707031 -0.882812 1.777344 -0.839844 C 1.847656 -0.796875 1.933594 -0.765625 2.027344 -0.746094 C 2.121094 -0.730469 2.21875 -0.71875 2.320312 -0.71875 C 2.570312 -0.71875 2.761719 -0.761719 2.898438 -0.84375 C 3.035156 -0.925781 3.136719 -1.027344 3.199219 -1.140625 C 3.265625 -1.257812 3.304688 -1.375 3.320312 -1.492188 C 3.335938 -1.613281 3.34375 -1.707031 3.34375 -1.777344 Z "/>
</g>
<g id="glyph-0-10">
<path d="M 3.574219 -2.792969 L 1.519531 -2.792969 C 1.527344 -2.878906 1.546875 -2.980469 1.578125 -3.09375 C 1.609375 -3.207031 1.667969 -3.3125 1.746094 -3.414062 C 1.828125 -3.515625 1.933594 -3.597656 2.066406 -3.667969 C 2.199219 -3.734375 2.367188 -3.769531 2.570312 -3.769531 C 2.878906 -3.769531 3.105469 -3.6875 3.257812 -3.519531 C 3.410156 -3.355469 3.515625 -3.113281 3.574219 -2.792969 Z M 1.519531 -1.992188 L 4.835938 -1.992188 C 4.859375 -2.347656 4.828125 -2.6875 4.746094 -3.011719 C 4.664062 -3.339844 4.527344 -3.628906 4.34375 -3.886719 C 4.15625 -4.140625 3.917969 -4.34375 3.628906 -4.492188 C 3.335938 -4.644531 2.996094 -4.71875 2.605469 -4.71875 C 2.253906 -4.71875 1.9375 -4.65625 1.648438 -4.535156 C 1.363281 -4.410156 1.113281 -4.238281 0.90625 -4.023438 C 0.699219 -3.804688 0.539062 -3.550781 0.425781 -3.253906 C 0.3125 -2.957031 0.257812 -2.636719 0.257812 -2.292969 C 0.257812 -1.9375 0.3125 -1.613281 0.421875 -1.316406 C 0.53125 -1.019531 0.6875 -0.765625 0.890625 -0.550781 C 1.089844 -0.335938 1.335938 -0.171875 1.625 -0.0585938 C 1.917969 0.0585938 2.242188 0.117188 2.605469 0.117188 C 3.125 0.117188 3.570312 -0.00390625 3.9375 -0.238281 C 4.304688 -0.476562 4.578125 -0.871094 4.757812 -1.421875 L 3.644531 -1.421875 C 3.601562 -1.28125 3.492188 -1.144531 3.308594 -1.019531 C 3.125 -0.890625 2.902344 -0.828125 2.648438 -0.828125 C 2.292969 -0.828125 2.019531 -0.917969 1.832031 -1.101562 C 1.640625 -1.285156 1.539062 -1.582031 1.519531 -1.992188 Z "/>
</g>
<g id="glyph-0-11">
<path d="M 3.742188 -2.3125 C 3.742188 -2.121094 3.726562 -1.9375 3.6875 -1.761719 C 3.652344 -1.582031 3.59375 -1.421875 3.511719 -1.285156 C 3.429688 -1.144531 3.316406 -1.035156 3.179688 -0.953125 C 3.039062 -0.867188 2.867188 -0.828125 2.65625 -0.828125 C 2.460938 -0.828125 2.296875 -0.871094 2.15625 -0.957031 C 2.015625 -1.042969 1.902344 -1.152344 1.808594 -1.292969 C 1.71875 -1.433594 1.652344 -1.589844 1.609375 -1.769531 C 1.566406 -1.945312 1.546875 -2.125 1.546875 -2.300781 C 1.546875 -2.492188 1.566406 -2.675781 1.605469 -2.847656 C 1.644531 -3.023438 1.707031 -3.179688 1.792969 -3.316406 C 1.878906 -3.453125 1.992188 -3.5625 2.132812 -3.644531 C 2.277344 -3.726562 2.449219 -3.769531 2.65625 -3.769531 C 2.863281 -3.769531 3.039062 -3.726562 3.171875 -3.644531 C 3.308594 -3.5625 3.421875 -3.453125 3.507812 -3.320312 C 3.59375 -3.1875 3.652344 -3.03125 3.6875 -2.859375 C 3.722656 -2.683594 3.742188 -2.5 3.742188 -2.3125 Z M 3.761719 -0.585938 L 3.761719 0 L 4.960938 0 L 4.960938 -6.347656 L 3.699219 -6.347656 L 3.699219 -4.035156 L 3.679688 -4.035156 C 3.539062 -4.261719 3.34375 -4.429688 3.097656 -4.546875 C 2.851562 -4.664062 2.59375 -4.71875 2.320312 -4.71875 C 1.984375 -4.71875 1.6875 -4.652344 1.429688 -4.519531 C 1.175781 -4.386719 0.964844 -4.210938 0.796875 -3.992188 C 0.628906 -3.773438 0.5 -3.519531 0.414062 -3.230469 C 0.328125 -2.945312 0.285156 -2.644531 0.285156 -2.339844 C 0.285156 -2.019531 0.328125 -1.710938 0.414062 -1.414062 C 0.5 -1.117188 0.625 -0.855469 0.796875 -0.625 C 0.964844 -0.398438 1.179688 -0.21875 1.441406 -0.0859375 C 1.703125 0.046875 2.003906 0.117188 2.347656 0.117188 C 2.648438 0.117188 2.921875 0.0625 3.160156 -0.0507812 C 3.398438 -0.160156 3.59375 -0.335938 3.742188 -0.585938 Z "/>
</g>
</g>
<image id="source-79" x="0" y="0" width="0" height="0"/>
<mask id="mask-0">
<use xlink:href="#source-79"/>
</mask>
</defs>
<g fill="rgb(100%, 100%, 100%)" fill-opacity="1">
<use xlink:href="#glyph-0-0" x="30" y="28.666992"/>
<use xlink:href="#glyph-0-1" x="35" y="28.666992"/>
<use xlink:href="#glyph-0-2" x="40" y="28.666992"/>
<use xlink:href="#glyph-0-2" x="42" y="28.666992"/>
<use xlink:href="#glyph-0-3" x="44" y="28.666992"/>
<use xlink:href="#glyph-0-4" x="49" y="28.666992"/>
<use xlink:href="#glyph-0-5" x="51" y="28.666992"/>
<use xlink:href="#glyph-0-1" x="57" y="28.666992"/>
<use xlink:href="#glyph-0-6" x="62" y="28.666992"/>
<use xlink:href="#glyph-0-7" x="65" y="28.666992"/>
<use xlink:href="#glyph-0-8" x="70" y="28.666992"/>
<use xlink:href="#glyph-0-9" x="78" y="28.666992"/>
<use xlink:href="#glyph-0-6" x="83" y="28.666992"/>
<use xlink:href="#glyph-0-10" x="86" y="28.666992"/>
<use xlink:href="#glyph-0-11" x="91" y="28.666992"/>
</g>
</svg>
