<?xml version="1.0" encoding="UTF-8"?>
<svg xmlns="http://www.w3.org/2000/svg" xmlns:xlink="http://www.w3.org/1999/xlink" width="1080" height="1080" viewBox="0 0 1080 1080">
<defs>
<g>
<g id="glyph-0-0">
<path d="M 0.480469 -3.644531 L 2.644531 -3.644531 L 2.644531 -3.230469 L 0.972656 -3.230469 L 0.972656 -2.25 L 2.570312 -2.25 L 2.570312 -1.832031 L 0.972656 -1.832031 L 0.972656 -0.414062 L 2.691406 -0.414062 L 2.691406 0 L 0.480469 0 Z "/>
</g>
<g id="glyph-0-1">
<path d="M 2.730469 -2.734375 L 1.75 -1.425781 L 2.824219 0 L 2.304688 0 L 1.503906 -1.097656 L 0.707031 0 L 0.1875 0 L 1.257812 -1.425781 L 0.28125 -2.734375 L 0.777344 -2.734375 L 1.503906 -1.746094 L 2.222656 -2.734375 Z "/>
</g>
<g id="glyph-0-2">
<path d="M 0.914062 -0.34375 L 0.914062 1.039062 L 0.464844 1.039062 L 0.464844 -2.734375 L 0.914062 -2.734375 L 0.914062 -2.386719 C 0.988281 -2.519531 1.089844 -2.625 1.214844 -2.695312 C 1.339844 -2.765625 1.484375 -2.800781 1.644531 -2.800781 C 1.976562 -2.800781 2.234375 -2.671875 2.421875 -2.417969 C 2.609375 -2.160156 2.703125 -1.808594 2.703125 -1.355469 C 2.703125 -0.910156 2.609375 -0.5625 2.421875 -0.308594 C 2.234375 -0.0546875 1.972656 0.0703125 1.644531 0.0703125 C 1.480469 0.0703125 1.335938 0.0351562 1.210938 -0.0351562 C 1.085938 -0.105469 0.988281 -0.210938 0.914062 -0.34375 Z M 2.234375 -1.363281 C 2.234375 -1.710938 2.179688 -1.976562 2.070312 -2.152344 C 1.960938 -2.332031 1.796875 -2.417969 1.578125 -2.417969 C 1.359375 -2.417969 1.195312 -2.332031 1.085938 -2.152344 C 0.972656 -1.972656 0.914062 -1.710938 0.914062 -1.363281 C 0.914062 -1.019531 0.972656 -0.757812 1.085938 -0.578125 C 1.195312 -0.398438 1.363281 -0.308594 1.578125 -0.308594 C 1.796875 -0.308594 1.960938 -0.398438 2.070312 -0.578125 C 2.179688 -0.753906 2.234375 -1.015625 2.234375 -1.363281 Z "/>
</g>
<g id="glyph-0-3">
<path d="M 1.753906 -0.988281 C 1.753906 -0.785156 1.792969 -0.632812 1.867188 -0.53125 C 1.941406 -0.429688 2.050781 -0.378906 2.195312 -0.378906 L 2.71875 -0.378906 L 2.71875 0 L 2.152344 0 C 1.882812 0 1.675781 -0.0859375 1.527344 -0.257812 C 1.378906 -0.429688 1.304688 -0.671875 1.304688 -0.988281 L 1.304688 -3.460938 L 0.585938 -3.460938 L 0.585938 -3.8125 L 1.753906 -3.8125 Z "/>
</g>
<g id="glyph-0-4">
<path d="M 1.714844 -1.375 L 1.566406 -1.375 C 1.304688 -1.375 1.105469 -1.328125 0.972656 -1.238281 C 0.839844 -1.144531 0.773438 -1.007812 0.773438 -0.824219 C 0.773438 -0.660156 0.824219 -0.53125 0.921875 -0.441406 C 1.023438 -0.351562 1.160156 -0.304688 1.335938 -0.304688 C 1.582031 -0.304688 1.777344 -0.390625 1.917969 -0.5625 C 2.058594 -0.734375 2.132812 -0.972656 2.132812 -1.273438 L 2.132812 -1.375 Z M 2.585938 -1.558594 L 2.585938 0 L 2.132812 0 L 2.132812 -0.40625 C 2.039062 -0.242188 1.917969 -0.121094 1.769531 -0.046875 C 1.625 0.03125 1.449219 0.0703125 1.242188 0.0703125 C 0.960938 0.0703125 0.738281 -0.0078125 0.574219 -0.164062 C 0.40625 -0.320312 0.324219 -0.53125 0.324219 -0.796875 C 0.324219 -1.101562 0.425781 -1.332031 0.632812 -1.488281 C 0.835938 -1.648438 1.136719 -1.726562 1.53125 -1.726562 L 2.132812 -1.726562 L 2.132812 -1.796875 C 2.132812 -2.015625 2.078125 -2.171875 1.96875 -2.273438 C 1.859375 -2.371094 1.683594 -2.417969 1.445312 -2.417969 C 1.292969 -2.417969 1.136719 -2.398438 0.980469 -2.351562 C 0.824219 -2.308594 0.671875 -2.246094 0.523438 -2.160156 L 0.523438 -2.609375 C 0.691406 -2.671875 0.851562 -2.722656 1.003906 -2.753906 C 1.15625 -2.785156 1.300781 -2.800781 1.445312 -2.800781 C 1.671875 -2.800781 1.863281 -2.765625 2.023438 -2.699219 C 2.183594 -2.632812 2.316406 -2.535156 2.414062 -2.398438 C 2.476562 -2.316406 2.519531 -2.21875 2.546875 -2.097656 C 2.574219 -1.976562 2.585938 -1.800781 2.585938 -1.558594 Z "/>
</g>
<g id="glyph-0-5">
<path d="M 0.773438 -2.726562 L 1.921875 -2.726562 L 1.921875 -0.347656 L 2.8125 -0.347656 L 2.8125 0 L 0.582031 0 L 0.582031 -0.347656 L 1.472656 -0.347656 L 1.472656 -2.375 L 0.773438 -2.375 Z M 1.472656 -3.785156 L 1.921875 -3.785156 L 1.921875 -3.21875 L 1.472656 -3.21875 Z "/>
</g>
</g>
</defs>
<g fill="rgb(80%, 80%, 80%)" fill-opacity="1">
<use xlink:href="#glyph-0-0" x="30" y="24.641602"/>
<use xlink:href="#glyph-0-1" x="33" y="24.641602"/>
<use xlink:href="#glyph-0-2" x="36" y="24.641602"/>
<use xlink:href="#glyph-0-3" x="39" y="24.641602"/>
<use xlink:href="#glyph-0-4" x="42" y="24.641602"/>
<use xlink:href="#glyph-0-5" x="45" y="24.641602"/>
</g>
</svg>
