<?xml version="1.0" encoding="UTF-8"?>
<svg xmlns="http://www.w3.org/2000/svg" xmlns:xlink="http://www.w3.org/1999/xlink" width="1080" height="1080" viewBox="0 0 1080 1080">
<defs>
<g>
<g id="glyph-0-0">
<path d="M 0.410156 -3.984375 L 1.183594 -3.984375 L 2.328125 -0.617188 L 3.464844 -3.984375 L 4.230469 -3.984375 L 4.230469 0 L 3.714844 0 L 3.714844 -2.351562 C 3.714844 -2.433594 3.71875 -2.566406 3.722656 -2.757812 C 3.726562 -2.945312 3.726562 -3.144531 3.726562 -3.359375 L 2.589844 0 L 2.054688 0 L 0.910156 -3.359375 L 0.910156 -3.238281 C 0.910156 -3.140625 0.914062 -2.992188 0.917969 -2.792969 C 0.921875 -2.59375 0.925781 -2.445312 0.925781 -2.351562 L 0.925781 0 L 0.410156 0 Z "/>
</g>
<g id="glyph-0-1">
<path d="M 0.734375 -0.773438 C 0.734375 -0.632812 0.785156 -0.519531 0.886719 -0.441406 C 0.988281 -0.359375 1.113281 -0.316406 1.253906 -0.316406 C 1.425781 -0.316406 1.589844 -0.355469 1.753906 -0.4375 C 2.023438 -0.570312 2.160156 -0.785156 2.160156 -1.085938 L 2.160156 -1.476562 C 2.101562 -1.441406 2.023438 -1.410156 1.929688 -1.382812 C 1.835938 -1.359375 1.742188 -1.339844 1.652344 -1.328125 L 1.355469 -1.292969 C 1.179688 -1.269531 1.046875 -1.230469 0.957031 -1.179688 C 0.808594 -1.09375 0.734375 -0.960938 0.734375 -0.773438 Z M 1.914062 -1.761719 C 2.027344 -1.777344 2.101562 -1.820312 2.140625 -1.902344 C 2.164062 -1.945312 2.171875 -2.007812 2.171875 -2.089844 C 2.171875 -2.253906 2.113281 -2.375 1.996094 -2.449219 C 1.878906 -2.527344 1.707031 -2.5625 1.488281 -2.5625 C 1.230469 -2.5625 1.050781 -2.496094 0.945312 -2.355469 C 0.886719 -2.28125 0.84375 -2.167969 0.828125 -2.019531 L 0.371094 -2.019531 C 0.378906 -2.375 0.496094 -2.625 0.71875 -2.765625 C 0.941406 -2.90625 1.203125 -2.976562 1.496094 -2.976562 C 1.839844 -2.976562 2.117188 -2.910156 2.332031 -2.78125 C 2.542969 -2.652344 2.648438 -2.449219 2.648438 -2.171875 L 2.648438 -0.5 C 2.648438 -0.449219 2.65625 -0.40625 2.679688 -0.378906 C 2.699219 -0.347656 2.742188 -0.332031 2.808594 -0.332031 C 2.832031 -0.332031 2.855469 -0.332031 2.882812 -0.335938 C 2.910156 -0.339844 2.941406 -0.34375 2.96875 -0.347656 L 2.96875 0.0117188 C 2.894531 0.0351562 2.835938 0.0507812 2.796875 0.0546875 C 2.757812 0.0585938 2.703125 0.0625 2.632812 0.0625 C 2.464844 0.0625 2.34375 0.00390625 2.269531 -0.117188 C 2.230469 -0.179688 2.199219 -0.269531 2.183594 -0.386719 C 2.085938 -0.253906 1.941406 -0.140625 1.753906 -0.046875 C 1.570312 0.0507812 1.363281 0.0976562 1.140625 0.0976562 C 0.871094 0.0976562 0.648438 0.015625 0.480469 -0.148438 C 0.308594 -0.3125 0.222656 -0.515625 0.222656 -0.761719 C 0.222656 -1.03125 0.304688 -1.242188 0.476562 -1.390625 C 0.644531 -1.539062 0.863281 -1.628906 1.136719 -1.664062 Z "/>
</g>
<g id="glyph-0-2">
<path d="M 0.359375 -2.90625 L 0.820312 -2.90625 L 0.820312 -2.492188 C 0.957031 -2.664062 1.105469 -2.785156 1.257812 -2.859375 C 1.414062 -2.933594 1.582031 -2.96875 1.769531 -2.96875 C 2.183594 -2.96875 2.460938 -2.828125 2.605469 -2.539062 C 2.6875 -2.382812 2.726562 -2.15625 2.726562 -1.863281 L 2.726562 0 L 2.230469 0 L 2.230469 -1.832031 C 2.230469 -2.007812 2.203125 -2.152344 2.152344 -2.257812 C 2.066406 -2.441406 1.90625 -2.53125 1.679688 -2.53125 C 1.5625 -2.53125 1.46875 -2.519531 1.394531 -2.496094 C 1.261719 -2.457031 1.144531 -2.375 1.042969 -2.257812 C 0.960938 -2.160156 0.90625 -2.0625 0.882812 -1.960938 C 0.859375 -1.859375 0.847656 -1.710938 0.847656 -1.523438 L 0.847656 0 L 0.359375 0 Z "/>
</g>
<g id="glyph-0-3">
<path d="M 0.359375 -2.890625 L 0.855469 -2.890625 L 0.855469 0 L 0.359375 0 Z M 0.359375 -3.984375 L 0.855469 -3.984375 L 0.855469 -3.429688 L 0.359375 -3.429688 Z "/>
</g>
<g id="glyph-0-4">
<path d="M 0.359375 -2.90625 L 0.839844 -2.90625 L 0.839844 -2.492188 C 0.957031 -2.636719 1.0625 -2.738281 1.15625 -2.804688 C 1.316406 -2.914062 1.5 -2.96875 1.703125 -2.96875 C 1.933594 -2.96875 2.121094 -2.914062 2.261719 -2.800781 C 2.339844 -2.734375 2.414062 -2.636719 2.480469 -2.511719 C 2.589844 -2.667969 2.714844 -2.78125 2.863281 -2.859375 C 3.007812 -2.933594 3.171875 -2.96875 3.355469 -2.96875 C 3.746094 -2.96875 4.011719 -2.828125 4.152344 -2.546875 C 4.230469 -2.394531 4.265625 -2.191406 4.265625 -1.933594 L 4.265625 0 L 3.761719 0 L 3.761719 -2.019531 C 3.761719 -2.210938 3.710938 -2.34375 3.613281 -2.417969 C 3.515625 -2.488281 3.398438 -2.527344 3.261719 -2.527344 C 3.070312 -2.527344 2.902344 -2.460938 2.765625 -2.332031 C 2.628906 -2.203125 2.558594 -1.992188 2.558594 -1.691406 L 2.558594 0 L 2.0625 0 L 2.0625 -1.894531 C 2.0625 -2.09375 2.039062 -2.238281 1.992188 -2.328125 C 1.917969 -2.464844 1.777344 -2.53125 1.574219 -2.53125 C 1.390625 -2.53125 1.222656 -2.460938 1.074219 -2.316406 C 0.921875 -2.171875 0.847656 -1.914062 0.847656 -1.539062 L 0.847656 0 L 0.359375 0 Z "/>
</g>
<g id="glyph-0-5">
<rect x="0" y="0" width="0" height="0" mask="url(#mask-0)"/>
</g>
<g id="glyph-0-6">
<path d="M 2.101562 -4.09375 C 2.605469 -4.09375 3 -3.960938 3.277344 -3.695312 C 3.554688 -3.429688 3.710938 -3.125 3.742188 -2.789062 L 3.214844 -2.789062 C 3.15625 -3.046875 3.035156 -3.25 2.859375 -3.398438 C 2.679688 -3.550781 2.429688 -3.625 2.109375 -3.625 C 1.714844 -3.625 1.398438 -3.484375 1.15625 -3.210938 C 0.914062 -2.933594 0.792969 -2.511719 0.792969 -1.941406 C 0.792969 -1.476562 0.902344 -1.097656 1.121094 -0.808594 C 1.339844 -0.515625 1.664062 -0.371094 2.097656 -0.371094 C 2.496094 -0.371094 2.796875 -0.523438 3.003906 -0.832031 C 3.117188 -0.992188 3.199219 -1.203125 3.253906 -1.464844 L 3.777344 -1.464844 C 3.730469 -1.046875 3.578125 -0.695312 3.3125 -0.410156 C 2.996094 -0.0664062 2.570312 0.101562 2.03125 0.101562 C 1.570312 0.101562 1.179688 -0.0351562 0.867188 -0.316406 C 0.453125 -0.6875 0.246094 -1.261719 0.246094 -2.035156 C 0.246094 -2.621094 0.398438 -3.105469 0.710938 -3.480469 C 1.046875 -3.890625 1.511719 -4.09375 2.101562 -4.09375 Z "/>
</g>
<g id="glyph-0-7">
<path d="M 1.511719 -0.316406 C 1.835938 -0.316406 2.058594 -0.4375 2.175781 -0.683594 C 2.296875 -0.929688 2.355469 -1.199219 2.355469 -1.5 C 2.355469 -1.769531 2.3125 -1.992188 2.226562 -2.160156 C 2.089844 -2.429688 1.851562 -2.5625 1.515625 -2.5625 C 1.21875 -2.5625 1 -2.449219 0.867188 -2.222656 C 0.730469 -1.996094 0.660156 -1.71875 0.660156 -1.398438 C 0.660156 -1.089844 0.730469 -0.832031 0.867188 -0.625 C 1 -0.417969 1.214844 -0.316406 1.511719 -0.316406 Z M 1.53125 -2.988281 C 1.90625 -2.988281 2.222656 -2.863281 2.480469 -2.613281 C 2.738281 -2.363281 2.867188 -2 2.867188 -1.515625 C 2.867188 -1.046875 2.753906 -0.660156 2.527344 -0.351562 C 2.296875 -0.046875 1.945312 0.105469 1.464844 0.105469 C 1.066406 0.105469 0.746094 -0.03125 0.511719 -0.300781 C 0.277344 -0.570312 0.160156 -0.933594 0.160156 -1.390625 C 0.160156 -1.878906 0.285156 -2.265625 0.53125 -2.554688 C 0.78125 -2.84375 1.113281 -2.988281 1.53125 -2.988281 Z "/>
</g>
<g id="glyph-0-8">
<path d="M 0.847656 -2.90625 L 0.847656 -0.976562 C 0.847656 -0.828125 0.871094 -0.707031 0.917969 -0.613281 C 1.003906 -0.441406 1.164062 -0.351562 1.402344 -0.351562 C 1.742188 -0.351562 1.972656 -0.503906 2.097656 -0.808594 C 2.164062 -0.972656 2.199219 -1.195312 2.199219 -1.476562 L 2.199219 -2.90625 L 2.6875 -2.90625 L 2.6875 0 L 2.222656 0 L 2.230469 -0.429688 C 2.167969 -0.320312 2.089844 -0.226562 1.992188 -0.148438 C 1.808594 0.00390625 1.582031 0.078125 1.316406 0.078125 C 0.902344 0.078125 0.621094 -0.0585938 0.46875 -0.335938 C 0.386719 -0.484375 0.347656 -0.683594 0.347656 -0.929688 L 0.347656 -2.90625 Z "/>
</g>
<g id="glyph-0-9">
<path d="M 0.457031 -3.714844 L 0.949219 -3.714844 L 0.949219 -2.90625 L 1.414062 -2.90625 L 1.414062 -2.507812 L 0.949219 -2.507812 L 0.949219 -0.609375 C 0.949219 -0.507812 0.984375 -0.441406 1.050781 -0.40625 C 1.089844 -0.386719 1.152344 -0.378906 1.242188 -0.378906 C 1.265625 -0.378906 1.292969 -0.378906 1.320312 -0.378906 C 1.347656 -0.378906 1.378906 -0.382812 1.414062 -0.386719 L 1.414062 0 C 1.359375 0.015625 1.300781 0.0273438 1.238281 0.0351562 C 1.179688 0.0429688 1.113281 0.046875 1.042969 0.046875 C 0.8125 0.046875 0.660156 -0.0117188 0.578125 -0.128906 C 0.496094 -0.246094 0.457031 -0.398438 0.457031 -0.582031 L 0.457031 -2.507812 L 0.0625 -2.507812 L 0.0625 -2.90625 L 0.457031 -2.90625 Z "/>
</g>
<g id="glyph-0-10">
<path d="M 2.171875 -2.90625 L 2.710938 -2.90625 C 2.644531 -2.71875 2.492188 -2.292969 2.253906 -1.628906 C 2.078125 -1.128906 1.929688 -0.722656 1.808594 -0.410156 C 1.527344 0.332031 1.328125 0.785156 1.210938 0.945312 C 1.097656 1.109375 0.898438 1.191406 0.617188 1.191406 C 0.546875 1.191406 0.496094 1.1875 0.457031 1.183594 C 0.421875 1.175781 0.375 1.167969 0.320312 1.152344 L 0.320312 0.707031 C 0.40625 0.730469 0.464844 0.746094 0.503906 0.75 C 0.542969 0.757812 0.574219 0.757812 0.605469 0.757812 C 0.695312 0.757812 0.761719 0.746094 0.804688 0.714844 C 0.847656 0.683594 0.882812 0.648438 0.910156 0.605469 C 0.921875 0.589844 0.953125 0.515625 1.007812 0.382812 C 1.066406 0.25 1.105469 0.148438 1.132812 0.0859375 L 0.0585938 -2.90625 L 0.609375 -2.90625 L 1.390625 -0.539062 Z "/>
</g>
<g id="glyph-0-11">
<path d="M 0.476562 -3.984375 L 3.378906 -3.984375 L 3.378906 -3.496094 L 1 -3.496094 L 1 -2.285156 L 3.199219 -2.285156 L 3.199219 -1.824219 L 1 -1.824219 L 1 -0.476562 L 3.421875 -0.476562 L 3.421875 0 L 0.476562 0 Z "/>
</g>
<g id="glyph-0-12">
<path d="M 0.667969 -1.417969 C 0.667969 -1.109375 0.734375 -0.847656 0.867188 -0.636719 C 0.996094 -0.425781 1.207031 -0.324219 1.5 -0.324219 C 1.726562 -0.324219 1.910156 -0.421875 2.058594 -0.613281 C 2.203125 -0.808594 2.277344 -1.085938 2.277344 -1.453125 C 2.277344 -1.820312 2.199219 -2.089844 2.050781 -2.265625 C 1.902344 -2.441406 1.714844 -2.53125 1.496094 -2.53125 C 1.25 -2.53125 1.050781 -2.4375 0.898438 -2.25 C 0.746094 -2.0625 0.667969 -1.785156 0.667969 -1.417969 Z M 1.402344 -2.957031 C 1.625 -2.957031 1.8125 -2.910156 1.960938 -2.816406 C 2.046875 -2.761719 2.148438 -2.667969 2.257812 -2.53125 L 2.257812 -4 L 2.726562 -4 L 2.726562 0 L 2.285156 0 L 2.285156 -0.402344 C 2.171875 -0.222656 2.039062 -0.0976562 1.882812 -0.015625 C 1.726562 0.0625 1.550781 0.101562 1.347656 0.101562 C 1.023438 0.101562 0.746094 -0.03125 0.507812 -0.304688 C 0.269531 -0.578125 0.152344 -0.941406 0.152344 -1.390625 C 0.152344 -1.816406 0.261719 -2.179688 0.476562 -2.492188 C 0.691406 -2.800781 1 -2.957031 1.402344 -2.957031 Z "/>
</g>
</g>
<image id="source-245" x="0" y="0" width="0" height="0"/>
<mask id="mask-0">
<use xlink:href="#source-245"/>
</mask>
</defs>
<g fill="rgb(40%, 40%, 46.666667%)" fill-opacity="1">
<use xlink:href="#glyph-0-0" x="30" y="24.27832"/>
<use xlink:href="#glyph-0-1" x="35" y="24.27832"/>
<use xlink:href="#glyph-0-2" x="38" y="24.27832"/>
<use xlink:href="#glyph-0-3" x="41" y="24.27832"/>
<use xlink:href="#glyph-0-4" x="42" y="24.27832"/>
<use xlink:href="#glyph-0-5" x="47" y="24.27832"/>
<use xlink:href="#glyph-0-6" x="49" y="24.27832"/>
<use xlink:href="#glyph-0-7" x="53" y="24.27832"/>
<use xlink:href="#glyph-0-4" x="56" y="24.27832"/>
<use xlink:href="#glyph-0-4" x="61" y="24.27832"/>
<use xlink:href="#glyph-0-8" x="66" y="24.27832"/>
<use xlink:href="#glyph-0-2" x="69" y="24.27832"/>
<use xlink:href="#glyph-0-3" x="72" y="24.27832"/>
<use xlink:href="#glyph-0-9" x="73" y="24.27832"/>
<use xlink:href="#glyph-0-10" x="75" y="24.27832"/>
<use xlink:href="#glyph-0-5" x="78" y="24.27832"/>
<use xlink:href="#glyph-0-11" x="80" y="24.27832"/>
<use xlink:href="#glyph-0-12" x="84" y="24.27832"/>
<use xlink:href="#glyph-0-3" x="87" y="24.27832"/>
<use xlink:href="#glyph-0-9" x="88" y="24.27832"/>
<use xlink:href="#glyph-0-3" x="90" y="24.27832"/>
<use xlink:href="#glyph-0-7" x="91" y="24.27832"/>
<use xlink:href="#glyph-0-2" x="94" y="24.27832"/>
</g>
</svg>
