<?xml version="1.0" encoding="UTF-8"?>
<svg xmlns="http://www.w3.org/2000/svg" xmlns:xlink="http://www.w3.org/1999/xlink" width="1080" height="1080" viewBox="0 0 1080 1080">
<defs>
<g>
<g id="glyph-0-0">
<path d="M 4.035156 -5.910156 L 4.035156 -5.328125 L 3.242188 -5.328125 C 2.992188 -5.328125 2.820312 -5.277344 2.722656 -5.175781 C 2.625 -5.070312 2.574219 -4.890625 2.574219 -4.628906 L 2.574219 -4.253906 L 4.035156 -4.253906 L 4.035156 -3.710938 L 2.574219 -3.710938 L 2.574219 0 L 1.875 0 L 1.875 -3.710938 L 0.742188 -3.710938 L 0.742188 -4.253906 L 1.875 -4.253906 L 1.875 -4.550781 C 1.875 -5.015625 1.984375 -5.359375 2.195312 -5.578125 C 2.410156 -5.796875 2.746094 -5.910156 3.199219 -5.910156 Z "/>
</g>
<g id="glyph-0-1">
<path d="M 3.246094 -6.28125 C 2.910156 -5.703125 2.660156 -5.128906 2.492188 -4.554688 C 2.328125 -3.980469 2.246094 -3.402344 2.246094 -2.820312 C 2.246094 -2.242188 2.328125 -1.664062 2.492188 -1.089844 C 2.660156 -0.515625 2.910156 0.0625 3.246094 0.644531 L 2.640625 0.644531 C 2.257812 0.0429688 1.972656 -0.542969 1.785156 -1.113281 C 1.597656 -1.683594 1.503906 -2.253906 1.503906 -2.820312 C 1.503906 -3.386719 1.597656 -3.953125 1.785156 -4.527344 C 1.972656 -5.097656 2.257812 -5.683594 2.640625 -6.28125 Z "/>
</g>
<g id="glyph-0-2">
<path d="M 4.246094 -4.253906 L 2.722656 -2.21875 L 4.394531 0 L 3.585938 0 L 2.339844 -1.707031 L 1.097656 0 L 0.289062 0 L 1.960938 -2.21875 L 0.4375 -4.253906 L 1.210938 -4.253906 L 2.339844 -2.714844 L 3.460938 -4.253906 Z "/>
</g>
<g id="glyph-0-3">
<path d="M 1.320312 -6.28125 L 1.929688 -6.28125 C 2.3125 -5.683594 2.597656 -5.097656 2.785156 -4.527344 C 2.972656 -3.953125 3.066406 -3.386719 3.066406 -2.820312 C 3.066406 -2.25 2.972656 -1.679688 2.785156 -1.109375 C 2.597656 -0.535156 2.3125 0.046875 1.929688 0.644531 L 1.320312 0.644531 C 1.65625 0.0585938 1.910156 -0.523438 2.074219 -1.097656 C 2.242188 -1.671875 2.324219 -2.246094 2.324219 -2.820312 C 2.324219 -3.398438 2.242188 -3.976562 2.074219 -4.550781 C 1.910156 -5.125 1.660156 -5.703125 1.320312 -6.28125 Z "/>
</g>
<g id="glyph-0-4">
<rect x="0" y="0" width="0" height="0" mask="url(#mask-0)"/>
</g>
<g id="glyph-0-5">
<path d="M 0.335938 -1.898438 L 4.347656 -1.898438 L 4.347656 -1.257812 L 0.335938 -1.257812 Z M 0.335938 -3.6875 L 4.347656 -3.6875 L 4.347656 -3.046875 L 0.335938 -3.046875 Z "/>
</g>
<g id="glyph-0-6">
<path d="M 1.417969 -0.644531 L 4.023438 -0.644531 L 4.023438 0 L 0.578125 0 L 0.578125 -0.644531 C 1.050781 -1.144531 1.464844 -1.585938 1.820312 -1.96875 C 2.175781 -2.351562 2.417969 -2.617188 2.550781 -2.777344 C 2.804688 -3.085938 2.976562 -3.335938 3.066406 -3.527344 C 3.152344 -3.71875 3.199219 -3.914062 3.199219 -4.113281 C 3.199219 -4.429688 3.105469 -4.675781 2.917969 -4.855469 C 2.730469 -5.035156 2.476562 -5.125 2.152344 -5.125 C 1.921875 -5.125 1.679688 -5.085938 1.429688 -5 C 1.175781 -4.917969 0.90625 -4.792969 0.621094 -4.621094 L 0.621094 -5.394531 C 0.882812 -5.519531 1.140625 -5.613281 1.390625 -5.675781 C 1.644531 -5.738281 1.890625 -5.773438 2.136719 -5.773438 C 2.691406 -5.773438 3.136719 -5.625 3.476562 -5.328125 C 3.816406 -5.035156 3.984375 -4.648438 3.984375 -4.167969 C 3.984375 -3.925781 3.925781 -3.683594 3.816406 -3.441406 C 3.703125 -3.199219 3.519531 -2.929688 3.265625 -2.636719 C 3.125 -2.472656 2.917969 -2.242188 2.648438 -1.953125 C 2.378906 -1.660156 1.96875 -1.226562 1.417969 -0.644531 Z "/>
</g>
</g>
<image id="source-88" x="0" y="0" width="0" height="0"/>
<mask id="mask-0">
<use xlink:href="#source-88"/>
</mask>
</defs>
<g fill="rgb(51.372549%, 75.686275%, 40.392157%)" fill-opacity="1">
<use xlink:href="#glyph-0-0" x="30" y="27.21875"/>
<use xlink:href="#glyph-0-1" x="35" y="27.21875"/>
<use xlink:href="#glyph-0-2" x="40" y="27.21875"/>
<use xlink:href="#glyph-0-3" x="45" y="27.21875"/>
<use xlink:href="#glyph-0-4" x="50" y="27.21875"/>
<use xlink:href="#glyph-0-5" x="55" y="27.21875"/>
<use xlink:href="#glyph-0-4" x="60" y="27.21875"/>
<use xlink:href="#glyph-0-6" x="65" y="27.21875"/>
<use xlink:href="#glyph-0-2" x="70" y="27.21875"/>
</g>
</svg>
