<?xml version="1.0" encoding="UTF-8"?>
<svg xmlns="http://www.w3.org/2000/svg" xmlns:xlink="http://www.w3.org/1999/xlink" width="1080" height="1080" viewBox="0 0 1080 1080">
<defs>
<g>
<g id="glyph-0-0">
<path d="M 1.382812 -2.390625 L 1.382812 -3.617188 L 2.433594 -3.617188 C 2.652344 -3.617188 2.816406 -3.570312 2.925781 -3.472656 C 3.035156 -3.378906 3.09375 -3.222656 3.09375 -3.011719 C 3.09375 -2.792969 3.035156 -2.632812 2.925781 -2.535156 C 2.816406 -2.4375 2.652344 -2.390625 2.433594 -2.390625 Z M 0.421875 -4.363281 L 0.421875 0 L 1.382812 0 L 1.382812 -1.703125 L 2.339844 -1.703125 C 2.582031 -1.703125 2.753906 -1.652344 2.859375 -1.546875 C 2.964844 -1.441406 3.035156 -1.273438 3.066406 -1.042969 C 3.089844 -0.867188 3.109375 -0.6875 3.121094 -0.496094 C 3.132812 -0.304688 3.167969 -0.136719 3.21875 0 L 4.179688 0 C 4.132812 -0.0625 4.101562 -0.136719 4.078125 -0.222656 C 4.054688 -0.308594 4.039062 -0.402344 4.03125 -0.5 C 4.019531 -0.597656 4.011719 -0.695312 4.007812 -0.789062 C 4.003906 -0.882812 4 -0.964844 3.996094 -1.03125 C 3.988281 -1.140625 3.972656 -1.253906 3.949219 -1.363281 C 3.925781 -1.472656 3.890625 -1.574219 3.84375 -1.664062 C 3.792969 -1.757812 3.730469 -1.835938 3.652344 -1.902344 C 3.574219 -1.96875 3.480469 -2.019531 3.359375 -2.054688 L 3.359375 -2.066406 C 3.605469 -2.164062 3.78125 -2.304688 3.890625 -2.492188 C 3.996094 -2.679688 4.050781 -2.902344 4.050781 -3.160156 C 4.050781 -3.328125 4.023438 -3.480469 3.960938 -3.625 C 3.902344 -3.769531 3.816406 -3.898438 3.707031 -4.007812 C 3.59375 -4.117188 3.460938 -4.203125 3.300781 -4.269531 C 3.144531 -4.332031 2.96875 -4.363281 2.773438 -4.363281 Z "/>
</g>
<g id="glyph-0-1">
<path d="M 2.457031 -1.917969 L 1.042969 -1.917969 C 1.046875 -1.980469 1.0625 -2.050781 1.085938 -2.125 C 1.109375 -2.203125 1.144531 -2.277344 1.199219 -2.347656 C 1.253906 -2.417969 1.328125 -2.472656 1.421875 -2.519531 C 1.511719 -2.566406 1.628906 -2.589844 1.765625 -2.589844 C 1.976562 -2.589844 2.136719 -2.535156 2.238281 -2.417969 C 2.34375 -2.304688 2.414062 -2.136719 2.457031 -1.917969 Z M 1.042969 -1.367188 L 3.324219 -1.367188 C 3.339844 -1.613281 3.320312 -1.847656 3.261719 -2.070312 C 3.207031 -2.296875 3.113281 -2.496094 2.984375 -2.671875 C 2.855469 -2.847656 2.691406 -2.984375 2.492188 -3.089844 C 2.292969 -3.191406 2.058594 -3.246094 1.789062 -3.246094 C 1.550781 -3.246094 1.332031 -3.203125 1.132812 -3.117188 C 0.9375 -3.03125 0.765625 -2.914062 0.625 -2.765625 C 0.480469 -2.617188 0.371094 -2.441406 0.292969 -2.238281 C 0.214844 -2.035156 0.175781 -1.8125 0.175781 -1.578125 C 0.175781 -1.332031 0.214844 -1.109375 0.289062 -0.90625 C 0.363281 -0.703125 0.472656 -0.527344 0.609375 -0.378906 C 0.75 -0.230469 0.917969 -0.121094 1.117188 -0.0390625 C 1.316406 0.0390625 1.542969 0.078125 1.789062 0.078125 C 2.148438 0.078125 2.453125 -0.00390625 2.707031 -0.164062 C 2.960938 -0.328125 3.148438 -0.597656 3.269531 -0.976562 L 2.503906 -0.976562 C 2.476562 -0.878906 2.398438 -0.789062 2.273438 -0.699219 C 2.148438 -0.613281 1.996094 -0.566406 1.820312 -0.566406 C 1.578125 -0.566406 1.390625 -0.632812 1.257812 -0.757812 C 1.128906 -0.882812 1.058594 -1.085938 1.042969 -1.367188 Z "/>
</g>
<g id="glyph-0-2">
<path d="M 0.328125 -3.160156 L 0.328125 0 L 1.199219 0 L 1.199219 -1.65625 C 1.199219 -1.976562 1.25 -2.207031 1.355469 -2.347656 C 1.460938 -2.488281 1.632812 -2.558594 1.871094 -2.558594 C 2.078125 -2.558594 2.222656 -2.496094 2.304688 -2.367188 C 2.386719 -2.238281 2.425781 -2.046875 2.425781 -1.785156 L 2.425781 0 L 3.292969 0 L 3.292969 -1.941406 C 3.292969 -2.136719 3.277344 -2.316406 3.242188 -2.476562 C 3.207031 -2.636719 3.148438 -2.773438 3.0625 -2.886719 C 2.976562 -3 2.859375 -3.085938 2.710938 -3.148438 C 2.5625 -3.210938 2.371094 -3.246094 2.136719 -3.246094 C 1.953125 -3.246094 1.777344 -3.203125 1.601562 -3.121094 C 1.425781 -3.035156 1.28125 -2.902344 1.171875 -2.71875 L 1.15625 -2.71875 L 1.15625 -3.160156 Z "/>
</g>
<g id="glyph-0-3">
<path d="M 2.574219 -1.589844 C 2.574219 -1.457031 2.558594 -1.332031 2.535156 -1.210938 C 2.511719 -1.089844 2.46875 -0.980469 2.414062 -0.882812 C 2.355469 -0.789062 2.28125 -0.710938 2.183594 -0.652344 C 2.089844 -0.597656 1.96875 -0.566406 1.828125 -0.566406 C 1.691406 -0.566406 1.578125 -0.597656 1.480469 -0.65625 C 1.386719 -0.714844 1.304688 -0.792969 1.242188 -0.890625 C 1.179688 -0.984375 1.132812 -1.09375 1.105469 -1.214844 C 1.078125 -1.335938 1.0625 -1.460938 1.0625 -1.582031 C 1.0625 -1.710938 1.078125 -1.839844 1.101562 -1.957031 C 1.128906 -2.078125 1.171875 -2.183594 1.230469 -2.277344 C 1.289062 -2.371094 1.367188 -2.449219 1.464844 -2.503906 C 1.5625 -2.5625 1.683594 -2.589844 1.828125 -2.589844 C 1.96875 -2.589844 2.085938 -2.5625 2.179688 -2.503906 C 2.273438 -2.449219 2.351562 -2.375 2.410156 -2.28125 C 2.46875 -2.191406 2.511719 -2.085938 2.535156 -1.964844 C 2.558594 -1.84375 2.574219 -1.71875 2.574219 -1.589844 Z M 2.585938 -0.402344 L 2.585938 0 L 3.410156 0 L 3.410156 -4.363281 L 2.542969 -4.363281 L 2.542969 -2.773438 L 2.53125 -2.773438 C 2.433594 -2.929688 2.296875 -3.046875 2.128906 -3.125 C 1.960938 -3.203125 1.78125 -3.246094 1.59375 -3.246094 C 1.363281 -3.246094 1.160156 -3.199219 0.984375 -3.105469 C 0.808594 -3.015625 0.664062 -2.894531 0.546875 -2.742188 C 0.429688 -2.59375 0.34375 -2.417969 0.285156 -2.222656 C 0.226562 -2.023438 0.195312 -1.820312 0.195312 -1.605469 C 0.195312 -1.386719 0.226562 -1.175781 0.285156 -0.972656 C 0.34375 -0.769531 0.429688 -0.585938 0.546875 -0.429688 C 0.664062 -0.273438 0.8125 -0.148438 0.988281 -0.0585938 C 1.167969 0.0351562 1.375 0.078125 1.613281 0.078125 C 1.820312 0.078125 2.007812 0.0429688 2.171875 -0.0351562 C 2.335938 -0.109375 2.46875 -0.230469 2.574219 -0.402344 Z "/>
</g>
<g id="glyph-0-4">
<path d="M 0.328125 -3.160156 L 0.328125 0 L 1.199219 0 L 1.199219 -1.421875 C 1.199219 -1.566406 1.210938 -1.699219 1.242188 -1.820312 C 1.269531 -1.941406 1.316406 -2.050781 1.382812 -2.140625 C 1.449219 -2.234375 1.539062 -2.304688 1.648438 -2.359375 C 1.757812 -2.410156 1.894531 -2.4375 2.054688 -2.4375 C 2.105469 -2.4375 2.160156 -2.433594 2.21875 -2.429688 C 2.273438 -2.421875 2.324219 -2.414062 2.363281 -2.40625 L 2.363281 -3.214844 C 2.296875 -3.234375 2.230469 -3.246094 2.175781 -3.246094 C 2.066406 -3.246094 1.960938 -3.226562 1.859375 -3.195312 C 1.757812 -3.164062 1.660156 -3.117188 1.570312 -3.058594 C 1.480469 -3 1.402344 -2.929688 1.332031 -2.84375 C 1.261719 -2.761719 1.207031 -2.671875 1.167969 -2.574219 L 1.15625 -2.574219 L 1.15625 -3.160156 Z "/>
</g>
</g>
</defs>
<g fill="rgb(51.372549%, 75.686275%, 40.392157%)" fill-opacity="1">
<use xlink:href="#glyph-0-0" x="30" y="25.958008"/>
<use xlink:href="#glyph-0-1" x="34" y="25.958008"/>
<use xlink:href="#glyph-0-2" x="38" y="25.958008"/>
<use xlink:href="#glyph-0-3" x="42" y="25.958008"/>
<use xlink:href="#glyph-0-1" x="46" y="25.958008"/>
<use xlink:href="#glyph-0-4" x="50" y="25.958008"/>
</g>
</svg>
