<?xml version="1.0" encoding="UTF-8"?>
<svg xmlns="http://www.w3.org/2000/svg" xmlns:xlink="http://www.w3.org/1999/xlink" width="1080" height="1080" viewBox="0 0 1080 1080">
<defs>
<g>
<g id="glyph-0-0">
<path d="M 4.035156 -5.910156 L 4.035156 -5.328125 L 3.242188 -5.328125 C 2.992188 -5.328125 2.820312 -5.277344 2.722656 -5.175781 C 2.625 -5.070312 2.574219 -4.890625 2.574219 -4.628906 L 2.574219 -4.253906 L 4.035156 -4.253906 L 4.035156 -3.710938 L 2.574219 -3.710938 L 2.574219 0 L 1.875 0 L 1.875 -3.710938 L 0.742188 -3.710938 L 0.742188 -4.253906 L 1.875 -4.253906 L 1.875 -4.550781 C 1.875 -5.015625 1.984375 -5.359375 2.195312 -5.578125 C 2.410156 -5.796875 2.746094 -5.910156 3.199219 -5.910156 Z "/>
</g>
<g id="glyph-0-1">
<path d="M 3.246094 -6.28125 C 2.910156 -5.703125 2.660156 -5.128906 2.492188 -4.554688 C 2.328125 -3.980469 2.246094 -3.402344 2.246094 -2.820312 C 2.246094 -2.242188 2.328125 -1.664062 2.492188 -1.089844 C 2.660156 -0.515625 2.910156 0.0625 3.246094 0.644531 L 2.640625 0.644531 C 2.257812 0.0429688 1.972656 -0.542969 1.785156 -1.113281 C 1.597656 -1.683594 1.503906 -2.253906 1.503906 -2.820312 C 1.503906 -3.386719 1.597656 -3.953125 1.785156 -4.527344 C 1.972656 -5.097656 2.257812 -5.683594 2.640625 -6.28125 Z "/>
</g>
<g id="glyph-0-2">
<path d="M 4.246094 -4.253906 L 2.722656 -2.21875 L 4.394531 0 L 3.585938 0 L 2.339844 -1.707031 L 1.097656 0 L 0.289062 0 L 1.960938 -2.21875 L 0.4375 -4.253906 L 1.210938 -4.253906 L 2.339844 -2.714844 L 3.460938 -4.253906 Z "/>
</g>
<g id="glyph-0-3">
<path d="M 1.320312 -6.28125 L 1.929688 -6.28125 C 2.3125 -5.683594 2.597656 -5.097656 2.785156 -4.527344 C 2.972656 -3.953125 3.066406 -3.386719 3.066406 -2.820312 C 3.066406 -2.25 2.972656 -1.679688 2.785156 -1.109375 C 2.597656 -0.535156 2.3125 0.046875 1.929688 0.644531 L 1.320312 0.644531 C 1.65625 0.0585938 1.910156 -0.523438 2.074219 -1.097656 C 2.242188 -1.671875 2.324219 -2.246094 2.324219 -2.820312 C 2.324219 -3.398438 2.242188 -3.976562 2.074219 -4.550781 C 1.910156 -5.125 1.660156 -5.703125 1.320312 -6.28125 Z "/>
</g>
<g id="glyph-0-4">
<rect x="0" y="0" width="0" height="0" mask="url(#mask-0)"/>
</g>
<g id="glyph-0-5">
<path d="M 0.335938 -1.898438 L 4.347656 -1.898438 L 4.347656 -1.257812 L 0.335938 -1.257812 Z M 0.335938 -3.6875 L 4.347656 -3.6875 L 4.347656 -3.046875 L 0.335938 -3.046875 Z "/>
</g>
<g id="glyph-0-6">
<path d="M 1.835938 -2.96875 L 3.390625 -2.96875 L 3.390625 -2.535156 L 1.222656 -2.535156 L 1.222656 -2.953125 L 2.101562 -3.8125 C 2.355469 -4.058594 2.535156 -4.257812 2.636719 -4.414062 C 2.738281 -4.566406 2.792969 -4.707031 2.792969 -4.839844 C 2.792969 -4.992188 2.726562 -5.117188 2.601562 -5.214844 C 2.476562 -5.308594 2.308594 -5.359375 2.101562 -5.359375 C 1.976562 -5.359375 1.84375 -5.335938 1.699219 -5.289062 C 1.554688 -5.242188 1.40625 -5.175781 1.246094 -5.085938 L 1.246094 -5.558594 C 1.410156 -5.628906 1.570312 -5.683594 1.722656 -5.71875 C 1.875 -5.753906 2.027344 -5.773438 2.175781 -5.773438 C 2.535156 -5.773438 2.824219 -5.6875 3.042969 -5.519531 C 3.261719 -5.351562 3.367188 -5.132812 3.367188 -4.859375 C 3.367188 -4.714844 3.320312 -4.570312 3.226562 -4.417969 C 3.132812 -4.269531 2.9375 -4.042969 2.636719 -3.75 Z "/>
</g>
</g>
<image id="source-88" x="0" y="0" width="0" height="0"/>
<mask id="mask-0">
<use xlink:href="#source-88"/>
</mask>
</defs>
<g fill="rgb(100%, 100%, 0%)" fill-opacity="1">
<use xlink:href="#glyph-0-0" x="30" y="27.21875"/>
<use xlink:href="#glyph-0-1" x="35" y="27.21875"/>
<use xlink:href="#glyph-0-2" x="40" y="27.21875"/>
<use xlink:href="#glyph-0-3" x="45" y="27.21875"/>
<use xlink:href="#glyph-0-4" x="50" y="27.21875"/>
<use xlink:href="#glyph-0-5" x="55" y="27.21875"/>
<use xlink:href="#glyph-0-4" x="60" y="27.21875"/>
<use xlink:href="#glyph-0-2" x="65" y="27.21875"/>
<use xlink:href="#glyph-0-6" x="70" y="27.21875"/>
</g>
</svg>
