<?xml version="1.0" encoding="UTF-8"?>
<svg xmlns="http://www.w3.org/2000/svg" xmlns:xlink="http://www.w3.org/1999/xlink" width="1080" height="1080" viewBox="0 0 1080 1080">
<defs>
<g>
<g id="glyph-0-0">
<path d="M 3.332031 -2.894531 L 4.257812 -2.894531 C 4.230469 -3.148438 4.160156 -3.371094 4.050781 -3.570312 C 3.941406 -3.765625 3.800781 -3.929688 3.632812 -4.058594 C 3.464844 -4.191406 3.273438 -4.292969 3.058594 -4.363281 C 2.84375 -4.433594 2.617188 -4.464844 2.375 -4.464844 C 2.042969 -4.464844 1.742188 -4.40625 1.476562 -4.289062 C 1.210938 -4.171875 0.984375 -4.007812 0.800781 -3.800781 C 0.617188 -3.59375 0.476562 -3.347656 0.378906 -3.070312 C 0.28125 -2.792969 0.230469 -2.488281 0.230469 -2.164062 C 0.230469 -1.84375 0.28125 -1.550781 0.378906 -1.273438 C 0.476562 -1 0.617188 -0.757812 0.800781 -0.554688 C 0.984375 -0.351562 1.207031 -0.191406 1.476562 -0.078125 C 1.742188 0.0390625 2.042969 0.0976562 2.375 0.0976562 C 2.644531 0.0976562 2.890625 0.0585938 3.117188 -0.0234375 C 3.339844 -0.105469 3.535156 -0.222656 3.703125 -0.378906 C 3.871094 -0.535156 4.003906 -0.722656 4.105469 -0.941406 C 4.207031 -1.160156 4.269531 -1.40625 4.296875 -1.679688 L 3.367188 -1.679688 C 3.332031 -1.386719 3.230469 -1.152344 3.0625 -0.972656 C 2.898438 -0.792969 2.671875 -0.703125 2.375 -0.703125 C 2.160156 -0.703125 1.976562 -0.746094 1.828125 -0.828125 C 1.675781 -0.910156 1.554688 -1.023438 1.460938 -1.160156 C 1.367188 -1.300781 1.296875 -1.457031 1.253906 -1.628906 C 1.210938 -1.800781 1.191406 -1.980469 1.191406 -2.164062 C 1.191406 -2.355469 1.214844 -2.539062 1.253906 -2.71875 C 1.296875 -2.898438 1.367188 -3.058594 1.460938 -3.199219 C 1.554688 -3.339844 1.675781 -3.453125 1.828125 -3.535156 C 1.976562 -3.617188 2.160156 -3.660156 2.375 -3.660156 C 2.496094 -3.660156 2.609375 -3.640625 2.714844 -3.601562 C 2.824219 -3.5625 2.921875 -3.507812 3.007812 -3.441406 C 3.09375 -3.371094 3.164062 -3.289062 3.21875 -3.199219 C 3.277344 -3.105469 3.3125 -3.007812 3.332031 -2.894531 Z "/>
</g>
<g id="glyph-0-1">
<path d="M 1.101562 -1.578125 C 1.101562 -1.703125 1.113281 -1.828125 1.136719 -1.949219 C 1.160156 -2.070312 1.203125 -2.179688 1.261719 -2.273438 C 1.320312 -2.367188 1.398438 -2.441406 1.496094 -2.503906 C 1.59375 -2.5625 1.71875 -2.589844 1.863281 -2.589844 C 2.011719 -2.589844 2.132812 -2.5625 2.234375 -2.503906 C 2.332031 -2.445312 2.414062 -2.367188 2.472656 -2.273438 C 2.53125 -2.179688 2.574219 -2.070312 2.597656 -1.949219 C 2.621094 -1.828125 2.632812 -1.703125 2.632812 -1.578125 C 2.632812 -1.449219 2.621094 -1.328125 2.597656 -1.207031 C 2.574219 -1.085938 2.53125 -0.980469 2.472656 -0.882812 C 2.414062 -0.789062 2.332031 -0.710938 2.234375 -0.652344 C 2.132812 -0.597656 2.011719 -0.566406 1.863281 -0.566406 C 1.71875 -0.566406 1.59375 -0.597656 1.496094 -0.652344 C 1.398438 -0.710938 1.320312 -0.789062 1.261719 -0.882812 C 1.203125 -0.980469 1.160156 -1.085938 1.136719 -1.207031 C 1.113281 -1.328125 1.101562 -1.449219 1.101562 -1.578125 Z M 0.230469 -1.578125 C 0.230469 -1.324219 0.269531 -1.097656 0.347656 -0.890625 C 0.425781 -0.6875 0.535156 -0.515625 0.679688 -0.371094 C 0.820312 -0.226562 0.992188 -0.113281 1.191406 -0.0351562 C 1.390625 0.0429688 1.613281 0.078125 1.863281 0.078125 C 2.113281 0.078125 2.335938 0.0390625 2.539062 -0.0351562 C 2.742188 -0.113281 2.914062 -0.226562 3.054688 -0.371094 C 3.199219 -0.515625 3.308594 -0.6875 3.386719 -0.890625 C 3.464844 -1.09375 3.5 -1.324219 3.5 -1.578125 C 3.5 -1.828125 3.460938 -2.058594 3.386719 -2.265625 C 3.308594 -2.46875 3.199219 -2.644531 3.054688 -2.789062 C 2.914062 -2.933594 2.742188 -3.046875 2.539062 -3.125 C 2.335938 -3.203125 2.113281 -3.246094 1.863281 -3.246094 C 1.613281 -3.246094 1.390625 -3.203125 1.191406 -3.125 C 0.992188 -3.046875 0.820312 -2.933594 0.679688 -2.789062 C 0.535156 -2.644531 0.425781 -2.46875 0.347656 -2.265625 C 0.269531 -2.058594 0.230469 -1.828125 0.230469 -1.578125 Z "/>
</g>
<g id="glyph-0-2">
<path d="M 2.574219 -1.589844 C 2.574219 -1.457031 2.558594 -1.332031 2.535156 -1.210938 C 2.511719 -1.089844 2.46875 -0.980469 2.414062 -0.882812 C 2.355469 -0.789062 2.28125 -0.710938 2.183594 -0.652344 C 2.089844 -0.597656 1.96875 -0.566406 1.828125 -0.566406 C 1.691406 -0.566406 1.578125 -0.597656 1.480469 -0.65625 C 1.386719 -0.714844 1.304688 -0.792969 1.242188 -0.890625 C 1.179688 -0.984375 1.132812 -1.09375 1.105469 -1.214844 C 1.078125 -1.335938 1.0625 -1.460938 1.0625 -1.582031 C 1.0625 -1.710938 1.078125 -1.839844 1.101562 -1.957031 C 1.128906 -2.078125 1.171875 -2.183594 1.230469 -2.277344 C 1.289062 -2.371094 1.367188 -2.449219 1.464844 -2.503906 C 1.5625 -2.5625 1.683594 -2.589844 1.828125 -2.589844 C 1.96875 -2.589844 2.085938 -2.5625 2.179688 -2.503906 C 2.273438 -2.449219 2.351562 -2.375 2.410156 -2.28125 C 2.46875 -2.191406 2.511719 -2.085938 2.535156 -1.964844 C 2.558594 -1.84375 2.574219 -1.71875 2.574219 -1.589844 Z M 2.585938 -0.402344 L 2.585938 0 L 3.410156 0 L 3.410156 -4.363281 L 2.542969 -4.363281 L 2.542969 -2.773438 L 2.53125 -2.773438 C 2.433594 -2.929688 2.296875 -3.046875 2.128906 -3.125 C 1.960938 -3.203125 1.78125 -3.246094 1.59375 -3.246094 C 1.363281 -3.246094 1.160156 -3.199219 0.984375 -3.105469 C 0.808594 -3.015625 0.664062 -2.894531 0.546875 -2.742188 C 0.429688 -2.59375 0.34375 -2.417969 0.285156 -2.222656 C 0.226562 -2.023438 0.195312 -1.820312 0.195312 -1.605469 C 0.195312 -1.386719 0.226562 -1.175781 0.285156 -0.972656 C 0.34375 -0.769531 0.429688 -0.585938 0.546875 -0.429688 C 0.664062 -0.273438 0.8125 -0.148438 0.988281 -0.0585938 C 1.167969 0.0351562 1.375 0.078125 1.613281 0.078125 C 1.820312 0.078125 2.007812 0.0429688 2.171875 -0.0351562 C 2.335938 -0.109375 2.46875 -0.230469 2.574219 -0.402344 Z "/>
</g>
<g id="glyph-0-3">
<path d="M 2.457031 -1.917969 L 1.042969 -1.917969 C 1.046875 -1.980469 1.0625 -2.050781 1.085938 -2.125 C 1.109375 -2.203125 1.144531 -2.277344 1.199219 -2.347656 C 1.253906 -2.417969 1.328125 -2.472656 1.421875 -2.519531 C 1.511719 -2.566406 1.628906 -2.589844 1.765625 -2.589844 C 1.976562 -2.589844 2.136719 -2.535156 2.238281 -2.417969 C 2.34375 -2.304688 2.414062 -2.136719 2.457031 -1.917969 Z M 1.042969 -1.367188 L 3.324219 -1.367188 C 3.339844 -1.613281 3.320312 -1.847656 3.261719 -2.070312 C 3.207031 -2.296875 3.113281 -2.496094 2.984375 -2.671875 C 2.855469 -2.847656 2.691406 -2.984375 2.492188 -3.089844 C 2.292969 -3.191406 2.058594 -3.246094 1.789062 -3.246094 C 1.550781 -3.246094 1.332031 -3.203125 1.132812 -3.117188 C 0.9375 -3.03125 0.765625 -2.914062 0.625 -2.765625 C 0.480469 -2.617188 0.371094 -2.441406 0.292969 -2.238281 C 0.214844 -2.035156 0.175781 -1.8125 0.175781 -1.578125 C 0.175781 -1.332031 0.214844 -1.109375 0.289062 -0.90625 C 0.363281 -0.703125 0.472656 -0.527344 0.609375 -0.378906 C 0.75 -0.230469 0.917969 -0.121094 1.117188 -0.0390625 C 1.316406 0.0390625 1.542969 0.078125 1.789062 0.078125 C 2.148438 0.078125 2.453125 -0.00390625 2.707031 -0.164062 C 2.960938 -0.328125 3.148438 -0.597656 3.269531 -0.976562 L 2.503906 -0.976562 C 2.476562 -0.878906 2.398438 -0.789062 2.273438 -0.699219 C 2.148438 -0.613281 1.996094 -0.566406 1.820312 -0.566406 C 1.578125 -0.566406 1.390625 -0.632812 1.257812 -0.757812 C 1.128906 -0.882812 1.058594 -1.085938 1.042969 -1.367188 Z "/>
</g>
</g>
</defs>
<g fill="rgb(100%, 100%, 0%)" fill-opacity="1">
<use xlink:href="#glyph-0-0" x="30" y="25.958008"/>
<use xlink:href="#glyph-0-1" x="35" y="25.958008"/>
<use xlink:href="#glyph-0-2" x="39" y="25.958008"/>
<use xlink:href="#glyph-0-3" x="43" y="25.958008"/>
</g>
</svg>
