<?xml version="1.0" encoding="UTF-8"?>
<svg xmlns="http://www.w3.org/2000/svg" xmlns:xlink="http://www.w3.org/1999/xlink" width="1080" height="1080" viewBox="0 0 1080 1080">
<defs>
<g>
<g id="glyph-0-0">
<path d="M 0.917969 -2.144531 L 0.917969 -1.671875 L 1.539062 -1.671875 L 1.539062 -1.457031 L 0.917969 -1.457031 L 0.917969 -0.550781 C 0.917969 -0.425781 0.941406 -0.339844 0.984375 -0.292969 C 1.03125 -0.242188 1.113281 -0.21875 1.230469 -0.21875 L 1.539062 -0.21875 L 1.539062 0 L 1.203125 0 C 0.996094 0 0.851562 -0.0429688 0.769531 -0.125 C 0.683594 -0.207031 0.640625 -0.347656 0.640625 -0.550781 L 0.640625 -1.457031 L 0.195312 -1.457031 L 0.195312 -1.671875 L 0.640625 -1.671875 L 0.640625 -2.144531 Z "/>
</g>
<g id="glyph-0-1">
<path d="M 1.722656 -1.328125 C 1.664062 -1.371094 1.605469 -1.40625 1.542969 -1.425781 C 1.484375 -1.445312 1.417969 -1.457031 1.34375 -1.457031 C 1.171875 -1.457031 1.042969 -1.402344 0.953125 -1.296875 C 0.863281 -1.1875 0.816406 -1.035156 0.816406 -0.832031 L 0.816406 0 L 0.539062 0 L 0.539062 -1.671875 L 0.816406 -1.671875 L 0.816406 -1.34375 C 0.863281 -1.460938 0.933594 -1.554688 1.027344 -1.617188 C 1.121094 -1.679688 1.234375 -1.710938 1.363281 -1.710938 C 1.433594 -1.710938 1.496094 -1.703125 1.554688 -1.6875 C 1.613281 -1.667969 1.667969 -1.644531 1.722656 -1.605469 Z "/>
</g>
<g id="glyph-0-2">
<path d="M 0.917969 -1.480469 C 0.78125 -1.480469 0.675781 -1.425781 0.601562 -1.316406 C 0.53125 -1.207031 0.496094 -1.046875 0.496094 -0.835938 C 0.496094 -0.621094 0.53125 -0.460938 0.601562 -0.351562 C 0.675781 -0.242188 0.78125 -0.191406 0.917969 -0.191406 C 1.058594 -0.191406 1.164062 -0.242188 1.238281 -0.351562 C 1.308594 -0.460938 1.34375 -0.621094 1.34375 -0.835938 C 1.34375 -1.046875 1.308594 -1.207031 1.238281 -1.316406 C 1.164062 -1.425781 1.058594 -1.480469 0.917969 -1.480469 Z M 0.917969 -1.710938 C 1.152344 -1.710938 1.328125 -1.636719 1.449219 -1.484375 C 1.574219 -1.335938 1.636719 -1.117188 1.636719 -0.835938 C 1.636719 -0.550781 1.574219 -0.332031 1.453125 -0.179688 C 1.328125 -0.03125 1.152344 0.0429688 0.917969 0.0429688 C 0.6875 0.0429688 0.511719 -0.03125 0.386719 -0.179688 C 0.265625 -0.332031 0.203125 -0.546875 0.203125 -0.835938 C 0.203125 -1.121094 0.265625 -1.335938 0.386719 -1.484375 C 0.511719 -1.636719 0.6875 -1.710938 0.917969 -1.710938 Z "/>
</g>
<g id="glyph-0-3">
<path d="M 0.289062 -0.632812 L 0.289062 -1.667969 L 0.566406 -1.667969 L 0.566406 -0.632812 C 0.566406 -0.484375 0.59375 -0.371094 0.644531 -0.300781 C 0.699219 -0.230469 0.78125 -0.195312 0.890625 -0.195312 C 1.019531 -0.195312 1.121094 -0.242188 1.1875 -0.332031 C 1.257812 -0.421875 1.292969 -0.554688 1.292969 -0.722656 L 1.292969 -1.667969 L 1.566406 -1.667969 L 1.566406 0 L 1.292969 0 L 1.292969 -0.25 C 1.242188 -0.152344 1.175781 -0.0820312 1.09375 -0.03125 C 1.007812 0.0195312 0.910156 0.0429688 0.796875 0.0429688 C 0.625 0.0429688 0.5 -0.0117188 0.417969 -0.125 C 0.332031 -0.238281 0.289062 -0.40625 0.289062 -0.632812 Z "/>
</g>
<g id="glyph-0-4">
<path d="M 1.371094 -0.835938 C 1.371094 -1.046875 1.335938 -1.207031 1.269531 -1.316406 C 1.199219 -1.425781 1.101562 -1.480469 0.96875 -1.480469 C 0.835938 -1.480469 0.734375 -1.425781 0.664062 -1.316406 C 0.597656 -1.207031 0.5625 -1.046875 0.5625 -0.835938 C 0.5625 -0.625 0.597656 -0.464844 0.664062 -0.355469 C 0.734375 -0.246094 0.835938 -0.191406 0.96875 -0.191406 C 1.101562 -0.191406 1.199219 -0.242188 1.269531 -0.351562 C 1.335938 -0.460938 1.371094 -0.621094 1.371094 -0.835938 Z M 0.5625 -1.457031 C 0.605469 -1.539062 0.667969 -1.601562 0.742188 -1.644531 C 0.820312 -1.6875 0.910156 -1.710938 1.011719 -1.710938 C 1.210938 -1.710938 1.371094 -1.632812 1.484375 -1.480469 C 1.601562 -1.324219 1.660156 -1.113281 1.660156 -0.839844 C 1.660156 -0.5625 1.601562 -0.347656 1.484375 -0.191406 C 1.367188 -0.0351562 1.210938 0.0429688 1.007812 0.0429688 C 0.910156 0.0429688 0.820312 0.0234375 0.746094 -0.0234375 C 0.667969 -0.0664062 0.609375 -0.128906 0.5625 -0.210938 L 0.5625 0 L 0.289062 0 L 0.289062 -2.320312 L 0.5625 -2.320312 Z "/>
</g>
<g id="glyph-0-5">
<path d="M 1.074219 -0.605469 C 1.074219 -0.480469 1.09375 -0.386719 1.140625 -0.324219 C 1.1875 -0.261719 1.253906 -0.230469 1.339844 -0.230469 L 1.664062 -0.230469 L 1.664062 0 L 1.316406 0 C 1.152344 0 1.023438 -0.0507812 0.933594 -0.15625 C 0.84375 -0.261719 0.796875 -0.410156 0.796875 -0.605469 L 0.796875 -2.117188 L 0.359375 -2.117188 L 0.359375 -2.332031 L 1.074219 -2.332031 Z "/>
</g>
<g id="glyph-0-6">
<path d="M 1.671875 -0.972656 L 1.671875 -0.839844 L 0.480469 -0.839844 L 0.480469 -0.828125 C 0.472656 -0.601562 0.515625 -0.4375 0.613281 -0.339844 C 0.707031 -0.238281 0.839844 -0.191406 1.015625 -0.191406 C 1.101562 -0.191406 1.195312 -0.203125 1.289062 -0.230469 C 1.382812 -0.257812 1.488281 -0.300781 1.59375 -0.359375 L 1.59375 -0.0859375 C 1.488281 -0.0429688 1.390625 -0.0117188 1.292969 0.0117188 C 1.195312 0.03125 1.101562 0.0429688 1.011719 0.0429688 C 0.753906 0.0429688 0.550781 -0.0351562 0.402344 -0.191406 C 0.257812 -0.347656 0.183594 -0.558594 0.183594 -0.835938 C 0.183594 -1.101562 0.253906 -1.3125 0.398438 -1.472656 C 0.542969 -1.632812 0.734375 -1.710938 0.972656 -1.710938 C 1.183594 -1.710938 1.351562 -1.640625 1.476562 -1.496094 C 1.597656 -1.351562 1.664062 -1.175781 1.671875 -0.972656 Z M 1.398438 -1.054688 C 1.386719 -1.167969 1.34375 -1.269531 1.269531 -1.351562 C 1.199219 -1.4375 1.09375 -1.480469 0.960938 -1.480469 C 0.828125 -1.480469 0.71875 -1.433594 0.632812 -1.347656 C 0.546875 -1.261719 0.5 -1.160156 0.492188 -1.050781 Z "/>
</g>
<g id="glyph-0-7">
<rect x="0" y="0" width="0" height="0" mask="url(#mask-0)"/>
</g>
<g id="glyph-0-8">
<path d="M 1.453125 -1.613281 L 1.453125 -1.34375 C 1.375 -1.390625 1.292969 -1.425781 1.214844 -1.445312 C 1.136719 -1.46875 1.054688 -1.480469 0.972656 -1.480469 C 0.847656 -1.480469 0.753906 -1.460938 0.691406 -1.421875 C 0.632812 -1.382812 0.601562 -1.320312 0.601562 -1.238281 C 0.601562 -1.164062 0.625 -1.105469 0.667969 -1.070312 C 0.714844 -1.03125 0.828125 -0.996094 1.011719 -0.960938 L 1.121094 -0.941406 C 1.257812 -0.914062 1.363281 -0.863281 1.429688 -0.785156 C 1.5 -0.707031 1.535156 -0.609375 1.535156 -0.484375 C 1.535156 -0.320312 1.476562 -0.1875 1.359375 -0.0976562 C 1.242188 -0.00390625 1.082031 0.0429688 0.871094 0.0429688 C 0.789062 0.0429688 0.703125 0.0351562 0.613281 0.015625 C 0.523438 0 0.421875 -0.0273438 0.316406 -0.0625 L 0.316406 -0.34375 C 0.417969 -0.292969 0.519531 -0.253906 0.613281 -0.226562 C 0.707031 -0.199219 0.792969 -0.1875 0.878906 -0.1875 C 1 -0.1875 1.09375 -0.210938 1.160156 -0.261719 C 1.226562 -0.308594 1.257812 -0.378906 1.257812 -0.46875 C 1.257812 -0.59375 1.136719 -0.683594 0.894531 -0.730469 L 0.882812 -0.734375 L 0.777344 -0.753906 C 0.621094 -0.785156 0.503906 -0.835938 0.433594 -0.910156 C 0.359375 -0.984375 0.324219 -1.082031 0.324219 -1.210938 C 0.324219 -1.371094 0.378906 -1.492188 0.488281 -1.582031 C 0.59375 -1.667969 0.75 -1.710938 0.949219 -1.710938 C 1.039062 -1.710938 1.125 -1.703125 1.207031 -1.6875 C 1.289062 -1.671875 1.371094 -1.644531 1.453125 -1.613281 Z "/>
</g>
<g id="glyph-0-9">
<path d="M 1.566406 -1.035156 L 1.566406 0 L 1.292969 0 L 1.292969 -1.035156 C 1.292969 -1.1875 1.265625 -1.296875 1.214844 -1.367188 C 1.160156 -1.4375 1.078125 -1.472656 0.964844 -1.472656 C 0.835938 -1.472656 0.738281 -1.425781 0.667969 -1.335938 C 0.601562 -1.246094 0.566406 -1.113281 0.566406 -0.945312 L 0.566406 0 L 0.289062 0 L 0.289062 -2.320312 L 0.566406 -2.320312 L 0.566406 -1.421875 C 0.613281 -1.515625 0.679688 -1.589844 0.765625 -1.636719 C 0.847656 -1.6875 0.945312 -1.710938 1.0625 -1.710938 C 1.230469 -1.710938 1.359375 -1.65625 1.441406 -1.542969 C 1.527344 -1.429688 1.566406 -1.261719 1.566406 -1.035156 Z "/>
</g>
<g id="glyph-0-10">
<path d="M 0.472656 -1.664062 L 1.175781 -1.664062 L 1.175781 -0.214844 L 1.71875 -0.214844 L 1.71875 0 L 0.355469 0 L 0.355469 -0.214844 L 0.898438 -0.214844 L 0.898438 -1.453125 L 0.472656 -1.453125 Z M 0.898438 -2.3125 L 1.175781 -2.3125 L 1.175781 -1.96875 L 0.898438 -1.96875 Z "/>
</g>
<g id="glyph-0-11">
<path d="M 1.566406 -1.035156 L 1.566406 0 L 1.292969 0 L 1.292969 -1.035156 C 1.292969 -1.1875 1.265625 -1.296875 1.214844 -1.367188 C 1.160156 -1.4375 1.078125 -1.472656 0.964844 -1.472656 C 0.835938 -1.472656 0.738281 -1.425781 0.667969 -1.335938 C 0.601562 -1.246094 0.566406 -1.113281 0.566406 -0.945312 L 0.566406 0 L 0.289062 0 L 0.289062 -1.671875 L 0.566406 -1.671875 L 0.566406 -1.421875 C 0.613281 -1.515625 0.679688 -1.589844 0.765625 -1.636719 C 0.847656 -1.6875 0.945312 -1.710938 1.0625 -1.710938 C 1.230469 -1.710938 1.359375 -1.65625 1.441406 -1.542969 C 1.527344 -1.429688 1.566406 -1.261719 1.566406 -1.035156 Z "/>
</g>
<g id="glyph-0-12">
<path d="M 1.28125 -0.847656 C 1.28125 -1.054688 1.246094 -1.210938 1.179688 -1.316406 C 1.113281 -1.425781 1.015625 -1.480469 0.886719 -1.480469 C 0.753906 -1.480469 0.648438 -1.425781 0.578125 -1.316406 C 0.507812 -1.210938 0.472656 -1.054688 0.472656 -0.847656 C 0.472656 -0.644531 0.507812 -0.484375 0.578125 -0.378906 C 0.648438 -0.269531 0.753906 -0.214844 0.890625 -0.214844 C 1.015625 -0.214844 1.113281 -0.269531 1.179688 -0.378906 C 1.246094 -0.488281 1.28125 -0.644531 1.28125 -0.847656 Z M 1.554688 -0.109375 C 1.554688 0.144531 1.496094 0.332031 1.378906 0.460938 C 1.257812 0.589844 1.085938 0.65625 0.855469 0.65625 C 0.78125 0.65625 0.699219 0.648438 0.617188 0.636719 C 0.535156 0.621094 0.453125 0.601562 0.371094 0.574219 L 0.371094 0.304688 C 0.46875 0.347656 0.554688 0.382812 0.636719 0.40625 C 0.714844 0.425781 0.789062 0.4375 0.855469 0.4375 C 1.003906 0.4375 1.109375 0.398438 1.179688 0.316406 C 1.246094 0.234375 1.28125 0.109375 1.28125 -0.0664062 L 1.28125 -0.265625 C 1.238281 -0.171875 1.175781 -0.101562 1.101562 -0.0585938 C 1.027344 -0.0117188 0.933594 0.0117188 0.824219 0.0117188 C 0.628906 0.0117188 0.472656 -0.0664062 0.359375 -0.222656 C 0.242188 -0.378906 0.183594 -0.585938 0.183594 -0.847656 C 0.183594 -1.109375 0.242188 -1.320312 0.359375 -1.476562 C 0.476562 -1.632812 0.628906 -1.710938 0.824219 -1.710938 C 0.933594 -1.710938 1.023438 -1.691406 1.097656 -1.648438 C 1.171875 -1.605469 1.234375 -1.539062 1.28125 -1.449219 L 1.28125 -1.664062 L 1.554688 -1.664062 Z "/>
</g>
</g>
<image id="source-287" x="0" y="0" width="0" height="0"/>
<mask id="mask-0">
<use xlink:href="#source-287"/>
</mask>
</defs>
<g fill="rgb(51.372549%, 75.686275%, 40.392157%)" fill-opacity="1">
<use xlink:href="#glyph-0-0" x="30" y="22.835938"/>
<use xlink:href="#glyph-0-1" x="32" y="22.835938"/>
<use xlink:href="#glyph-0-2" x="34" y="22.835938"/>
<use xlink:href="#glyph-0-3" x="36" y="22.835938"/>
<use xlink:href="#glyph-0-4" x="38" y="22.835938"/>
<use xlink:href="#glyph-0-5" x="40" y="22.835938"/>
<use xlink:href="#glyph-0-6" x="42" y="22.835938"/>
<use xlink:href="#glyph-0-7" x="44" y="22.835938"/>
</g>
<g fill="rgb(51.372549%, 75.686275%, 40.392157%)" fill-opacity="1">
<use xlink:href="#glyph-0-8" x="30" y="25.816406"/>
<use xlink:href="#glyph-0-9" x="32" y="25.816406"/>
<use xlink:href="#glyph-0-2" x="34" y="25.816406"/>
<use xlink:href="#glyph-0-2" x="36" y="25.816406"/>
<use xlink:href="#glyph-0-0" x="38" y="25.816406"/>
<use xlink:href="#glyph-0-10" x="40" y="25.816406"/>
<use xlink:href="#glyph-0-11" x="42" y="25.816406"/>
<use xlink:href="#glyph-0-12" x="44" y="25.816406"/>
</g>
</svg>
