<?xml version="1.0" encoding="UTF-8"?>
<svg xmlns="http://www.w3.org/2000/svg" xmlns:xlink="http://www.w3.org/1999/xlink" width="1280" height="720" viewBox="0 0 1280 720">
<defs>
<g>
<g id="glyph-0-0">
<path d="M 0.628906 -4.859375 L 3.269531 -4.859375 L 3.269531 -4.015625 L 1.40625 -4.015625 L 1.40625 -3.113281 C 1.484375 -3.144531 1.566406 -3.164062 1.65625 -3.179688 C 1.746094 -3.191406 1.839844 -3.199219 1.941406 -3.199219 C 2.421875 -3.199219 2.8125 -3.046875 3.113281 -2.746094 C 3.410156 -2.441406 3.5625 -2.046875 3.5625 -1.558594 C 3.5625 -1.050781 3.398438 -0.644531 3.074219 -0.351562 C 2.75 -0.0546875 2.308594 0.09375 1.75 0.09375 C 1.539062 0.09375 1.328125 0.078125 1.117188 0.0429688 C 0.902344 0.0078125 0.6875 -0.0429688 0.464844 -0.113281 L 0.464844 -0.980469 C 0.644531 -0.890625 0.832031 -0.824219 1.019531 -0.78125 C 1.210938 -0.734375 1.402344 -0.714844 1.59375 -0.714844 C 1.929688 -0.714844 2.1875 -0.785156 2.363281 -0.929688 C 2.539062 -1.074219 2.628906 -1.285156 2.628906 -1.558594 C 2.628906 -1.8125 2.539062 -2.015625 2.363281 -2.167969 C 2.191406 -2.320312 1.957031 -2.398438 1.667969 -2.398438 C 1.496094 -2.398438 1.324219 -2.378906 1.152344 -2.335938 C 0.980469 -2.292969 0.804688 -2.230469 0.628906 -2.144531 Z "/>
</g>
</g>
</defs>
<g fill="rgb(100%, 41.960784%, 41.960784%)" fill-opacity="1">
<use xlink:href="#glyph-0-0" x="30" y="26.188477"/>
</g>
</svg>
