<?xml version="1.0" encoding="UTF-8"?>
<svg xmlns="http://www.w3.org/2000/svg" xmlns:xlink="http://www.w3.org/1999/xlink" width="1280" height="720" viewBox="0 0 1280 720">
<defs>
<g>
<g id="glyph-0-0">
<path d="M 1.414062 -0.847656 L 3.460938 -0.847656 L 3.460938 0 L 0.375 0 L 0.375 -0.820312 L 0.894531 -1.375 C 1.511719 -2.03125 1.890625 -2.4375 2.023438 -2.589844 C 2.183594 -2.773438 2.300781 -2.941406 2.375 -3.085938 C 2.445312 -3.230469 2.480469 -3.371094 2.480469 -3.511719 C 2.480469 -3.730469 2.414062 -3.898438 2.285156 -4.015625 C 2.152344 -4.132812 1.964844 -4.191406 1.726562 -4.191406 C 1.554688 -4.191406 1.359375 -4.160156 1.148438 -4.089844 C 0.933594 -4.023438 0.710938 -3.921875 0.480469 -3.792969 L 0.480469 -4.6875 C 0.710938 -4.773438 0.9375 -4.835938 1.160156 -4.882812 C 1.382812 -4.925781 1.597656 -4.949219 1.800781 -4.949219 C 2.316406 -4.949219 2.71875 -4.828125 3.011719 -4.589844 C 3.304688 -4.347656 3.453125 -4.019531 3.453125 -3.605469 C 3.453125 -3.414062 3.421875 -3.238281 3.359375 -3.070312 C 3.292969 -2.902344 3.183594 -2.71875 3.027344 -2.511719 C 2.914062 -2.363281 2.597656 -2.035156 2.082031 -1.515625 C 1.800781 -1.238281 1.578125 -1.011719 1.414062 -0.847656 Z "/>
</g>
<g id="glyph-0-1">
<path d="M 0.628906 -4.859375 L 3.269531 -4.859375 L 3.269531 -4.015625 L 1.40625 -4.015625 L 1.40625 -3.113281 C 1.484375 -3.144531 1.566406 -3.164062 1.65625 -3.179688 C 1.746094 -3.191406 1.839844 -3.199219 1.941406 -3.199219 C 2.421875 -3.199219 2.8125 -3.046875 3.113281 -2.746094 C 3.410156 -2.441406 3.5625 -2.046875 3.5625 -1.558594 C 3.5625 -1.050781 3.398438 -0.644531 3.074219 -0.351562 C 2.75 -0.0546875 2.308594 0.09375 1.75 0.09375 C 1.539062 0.09375 1.328125 0.078125 1.117188 0.0429688 C 0.902344 0.0078125 0.6875 -0.0429688 0.464844 -0.113281 L 0.464844 -0.980469 C 0.644531 -0.890625 0.832031 -0.824219 1.019531 -0.78125 C 1.210938 -0.734375 1.402344 -0.714844 1.59375 -0.714844 C 1.929688 -0.714844 2.1875 -0.785156 2.363281 -0.929688 C 2.539062 -1.074219 2.628906 -1.285156 2.628906 -1.558594 C 2.628906 -1.8125 2.539062 -2.015625 2.363281 -2.167969 C 2.191406 -2.320312 1.957031 -2.398438 1.667969 -2.398438 C 1.496094 -2.398438 1.324219 -2.378906 1.152344 -2.335938 C 0.980469 -2.292969 0.804688 -2.230469 0.628906 -2.144531 Z "/>
</g>
</g>
</defs>
<g fill="rgb(90.196078%, 49.411765%, 13.333333%)" fill-opacity="1">
<use xlink:href="#glyph-0-0" x="30" y="26.188477"/>
<use xlink:href="#glyph-0-1" x="34" y="26.188477"/>
</g>
</svg>
