<?xml version="1.0" encoding="UTF-8"?>
<svg xmlns="http://www.w3.org/2000/svg" xmlns:xlink="http://www.w3.org/1999/xlink" width="1920" height="1080" viewBox="0 0 1920 1080">
<defs>
<g>
<g id="glyph-0-0">
<path d="M 2.40625 -2.101562 C 2.496094 -2.085938 2.570312 -2.042969 2.636719 -1.980469 C 2.699219 -1.914062 2.78125 -1.789062 2.875 -1.601562 L 3.679688 0 L 2.710938 0 L 2.175781 -1.125 C 2.160156 -1.15625 2.136719 -1.199219 2.113281 -1.257812 C 1.957031 -1.59375 1.769531 -1.761719 1.558594 -1.761719 L 1.277344 -1.761719 L 1.277344 0 L 0.398438 0 L 0.398438 -4.453125 L 1.667969 -4.453125 C 2.242188 -4.453125 2.652344 -4.351562 2.902344 -4.148438 C 3.152344 -3.945312 3.277344 -3.617188 3.277344 -3.160156 C 3.277344 -2.851562 3.203125 -2.609375 3.050781 -2.429688 C 2.902344 -2.246094 2.6875 -2.140625 2.40625 -2.101562 Z M 1.277344 -3.714844 L 1.277344 -2.5 L 1.691406 -2.5 C 1.933594 -2.5 2.105469 -2.546875 2.210938 -2.640625 C 2.3125 -2.734375 2.367188 -2.890625 2.367188 -3.109375 C 2.367188 -3.324219 2.3125 -3.480469 2.210938 -3.574219 C 2.109375 -3.667969 1.933594 -3.714844 1.691406 -3.714844 Z "/>
</g>
<g id="glyph-0-1">
<path d="M 3.289062 -0.164062 C 3.085938 -0.0820312 2.878906 -0.0195312 2.667969 0.0234375 C 2.457031 0.0664062 2.234375 0.0859375 2 0.0859375 C 1.441406 0.0859375 1.011719 -0.0625 0.71875 -0.363281 C 0.421875 -0.664062 0.273438 -1.09375 0.273438 -1.65625 C 0.273438 -2.199219 0.417969 -2.632812 0.699219 -2.949219 C 0.984375 -3.265625 1.375 -3.421875 1.863281 -3.421875 C 2.359375 -3.421875 2.746094 -3.277344 3.019531 -2.980469 C 3.292969 -2.6875 3.429688 -2.277344 3.429688 -1.742188 L 3.429688 -1.386719 L 1.164062 -1.386719 C 1.164062 -1.125 1.242188 -0.929688 1.394531 -0.800781 C 1.550781 -0.671875 1.777344 -0.605469 2.082031 -0.605469 C 2.285156 -0.605469 2.480469 -0.632812 2.675781 -0.691406 C 2.871094 -0.75 3.074219 -0.839844 3.289062 -0.964844 Z M 2.546875 -2.042969 C 2.542969 -2.273438 2.484375 -2.449219 2.371094 -2.566406 C 2.257812 -2.683594 2.085938 -2.746094 1.863281 -2.746094 C 1.664062 -2.746094 1.503906 -2.683594 1.382812 -2.5625 C 1.265625 -2.4375 1.195312 -2.265625 1.171875 -2.039062 Z "/>
</g>
<g id="glyph-0-2">
<path d="M 1.320312 -0.472656 L 1.320312 1.269531 L 0.449219 1.269531 L 0.449219 -3.339844 L 1.320312 -3.339844 L 1.320312 -2.839844 C 1.410156 -3.03125 1.53125 -3.179688 1.679688 -3.277344 C 1.828125 -3.375 2.003906 -3.421875 2.203125 -3.421875 C 2.585938 -3.421875 2.882812 -3.269531 3.09375 -2.960938 C 3.304688 -2.65625 3.410156 -2.226562 3.410156 -1.667969 C 3.410156 -1.101562 3.304688 -0.667969 3.089844 -0.367188 C 2.875 -0.0664062 2.570312 0.0859375 2.175781 0.0859375 C 1.996094 0.0859375 1.835938 0.0390625 1.691406 -0.0507812 C 1.550781 -0.144531 1.425781 -0.285156 1.320312 -0.472656 Z M 2.535156 -1.671875 C 2.535156 -1.996094 2.480469 -2.25 2.375 -2.429688 C 2.265625 -2.613281 2.121094 -2.707031 1.929688 -2.707031 C 1.742188 -2.707031 1.59375 -2.613281 1.484375 -2.429688 C 1.375 -2.246094 1.320312 -1.996094 1.320312 -1.671875 C 1.320312 -1.351562 1.375 -1.097656 1.484375 -0.914062 C 1.59375 -0.730469 1.742188 -0.640625 1.929688 -0.640625 C 2.117188 -0.640625 2.265625 -0.734375 2.375 -0.914062 C 2.480469 -1.097656 2.535156 -1.351562 2.535156 -1.671875 Z "/>
</g>
<g id="glyph-0-3">
<path d="M 2.089844 -1.570312 C 1.761719 -1.570312 1.535156 -1.527344 1.40625 -1.445312 C 1.277344 -1.359375 1.210938 -1.21875 1.210938 -1.015625 C 1.210938 -0.863281 1.257812 -0.742188 1.34375 -0.652344 C 1.433594 -0.5625 1.554688 -0.519531 1.710938 -0.519531 C 1.941406 -0.519531 2.121094 -0.605469 2.246094 -0.78125 C 2.375 -0.953125 2.4375 -1.199219 2.4375 -1.507812 L 2.4375 -1.570312 Z M 3.304688 -1.90625 L 3.304688 0 L 2.4375 0 L 2.4375 -0.371094 C 2.332031 -0.226562 2.195312 -0.113281 2.03125 -0.03125 C 1.867188 0.046875 1.683594 0.0859375 1.484375 0.0859375 C 1.105469 0.0859375 0.808594 -0.015625 0.597656 -0.214844 C 0.386719 -0.414062 0.28125 -0.695312 0.28125 -1.054688 C 0.28125 -1.445312 0.40625 -1.734375 0.660156 -1.921875 C 0.914062 -2.105469 1.304688 -2.199219 1.832031 -2.199219 L 2.4375 -2.199219 L 2.4375 -2.34375 C 2.4375 -2.484375 2.386719 -2.59375 2.285156 -2.664062 C 2.183594 -2.738281 2.03125 -2.773438 1.832031 -2.773438 C 1.625 -2.773438 1.421875 -2.75 1.226562 -2.695312 C 1.03125 -2.644531 0.824219 -2.558594 0.613281 -2.445312 L 0.613281 -3.1875 C 0.804688 -3.269531 1 -3.328125 1.199219 -3.367188 C 1.398438 -3.402344 1.609375 -3.421875 1.832031 -3.421875 C 2.375 -3.421875 2.757812 -3.3125 2.976562 -3.089844 C 3.195312 -2.871094 3.304688 -2.476562 3.304688 -1.90625 Z "/>
</g>
<g id="glyph-0-4">
<path d="M 2.058594 -4.289062 L 2.058594 -3.339844 L 3.203125 -3.339844 L 3.203125 -2.671875 L 2.058594 -2.671875 L 2.058594 -1.089844 C 2.058594 -0.941406 2.09375 -0.832031 2.167969 -0.769531 C 2.242188 -0.703125 2.359375 -0.671875 2.53125 -0.671875 L 3.203125 -0.671875 L 3.203125 0 L 2.46875 0 C 1.964844 0 1.628906 -0.078125 1.449219 -0.238281 C 1.273438 -0.398438 1.183594 -0.695312 1.183594 -1.128906 L 1.183594 -2.671875 L 0.332031 -2.671875 L 0.332031 -3.339844 L 1.183594 -3.339844 L 1.183594 -4.289062 Z "/>
</g>
</g>
</defs>
<g fill="rgb(51.372549%, 75.686275%, 40.392157%)" fill-opacity="1">
<use xlink:href="#glyph-0-0" x="30" y="25.671875"/>
<use xlink:href="#glyph-0-1" x="34" y="25.671875"/>
<use xlink:href="#glyph-0-2" x="38" y="25.671875"/>
<use xlink:href="#glyph-0-1" x="42" y="25.671875"/>
<use xlink:href="#glyph-0-3" x="46" y="25.671875"/>
<use xlink:href="#glyph-0-4" x="50" y="25.671875"/>
</g>
</svg>
