<?xml version="1.0" encoding="UTF-8"?>
<svg xmlns="http://www.w3.org/2000/svg" xmlns:xlink="http://www.w3.org/1999/xlink" width="1920" height="1080" viewBox="0 0 1920 1080">
<defs>
<g>
<g id="glyph-0-0">
<path d="M 1.222656 -3.59375 L 2.140625 -3.59375 L 2.140625 -3.285156 L 1.621094 -3.285156 L 1.621094 0.0585938 L 2.140625 0.0585938 L 2.140625 0.367188 L 1.222656 0.367188 Z "/>
</g>
<g id="glyph-0-1">
<path d="M 1.335938 -3.289062 C 1.683594 -3.289062 1.945312 -3.148438 2.121094 -2.863281 C 2.296875 -2.582031 2.386719 -2.164062 2.386719 -1.613281 C 2.386719 -1.058594 2.296875 -0.640625 2.121094 -0.359375 C 1.945312 -0.078125 1.683594 0.0625 1.335938 0.0625 C 0.992188 0.0625 0.730469 -0.078125 0.554688 -0.359375 C 0.378906 -0.640625 0.289062 -1.058594 0.289062 -1.613281 C 0.289062 -2.164062 0.375 -2.582031 0.554688 -2.863281 C 0.730469 -3.144531 0.992188 -3.289062 1.335938 -3.289062 Z M 1.335938 -0.285156 C 1.542969 -0.285156 1.695312 -0.394531 1.796875 -0.613281 C 1.898438 -0.832031 1.945312 -1.164062 1.945312 -1.613281 C 1.945312 -1.851562 1.933594 -2.066406 1.902344 -2.257812 L 0.871094 -0.640625 C 0.980469 -0.402344 1.132812 -0.285156 1.335938 -0.285156 Z M 1.335938 -2.941406 C 1.132812 -2.941406 0.980469 -2.832031 0.878906 -2.613281 C 0.777344 -2.394531 0.730469 -2.0625 0.730469 -1.613281 C 0.730469 -1.410156 0.742188 -1.21875 0.769531 -1.039062 L 1.78125 -2.652344 C 1.671875 -2.84375 1.523438 -2.941406 1.335938 -2.941406 Z "/>
</g>
<g id="glyph-0-2">
<path d="M 0.84375 -0.875 L 1.609375 -0.875 L 1.609375 0 L 0.84375 0 Z "/>
</g>
<g id="glyph-0-3">
<path d="M 0.449219 -3.238281 L 2.089844 -3.238281 L 2.089844 -2.871094 L 0.847656 -2.871094 L 0.847656 -2.074219 C 0.910156 -2.097656 0.972656 -2.113281 1.035156 -2.125 C 1.097656 -2.136719 1.164062 -2.140625 1.226562 -2.140625 C 1.5625 -2.140625 1.828125 -2.042969 2.023438 -1.84375 C 2.222656 -1.644531 2.320312 -1.378906 2.320312 -1.039062 C 2.320312 -0.699219 2.214844 -0.429688 2.011719 -0.230469 C 1.804688 -0.0351562 1.523438 0.0625 1.164062 0.0625 C 0.992188 0.0625 0.835938 0.0507812 0.691406 0.0273438 C 0.550781 0.00390625 0.421875 -0.03125 0.308594 -0.0742188 L 0.308594 -0.519531 C 0.441406 -0.449219 0.578125 -0.394531 0.710938 -0.359375 C 0.847656 -0.324219 0.984375 -0.304688 1.125 -0.304688 C 1.367188 -0.304688 1.550781 -0.371094 1.683594 -0.496094 C 1.8125 -0.625 1.878906 -0.804688 1.878906 -1.039062 C 1.878906 -1.269531 1.8125 -1.449219 1.675781 -1.578125 C 1.539062 -1.707031 1.351562 -1.773438 1.109375 -1.773438 C 0.992188 -1.773438 0.878906 -1.757812 0.769531 -1.734375 C 0.65625 -1.707031 0.550781 -1.664062 0.449219 -1.613281 Z "/>
</g>
<g id="glyph-0-4">
<path d="M 0.960938 -0.785156 L 1.636719 -0.785156 L 1.636719 -0.207031 L 1.15625 0.726562 L 0.71875 0.730469 L 0.960938 -0.207031 Z "/>
</g>
<g id="glyph-0-5">
<rect x="0" y="0" width="0" height="0" mask="url(#mask-0)"/>
</g>
<g id="glyph-0-6">
<path d="M 1.335938 -1.539062 C 1.140625 -1.539062 0.992188 -1.484375 0.882812 -1.375 C 0.777344 -1.265625 0.726562 -1.109375 0.726562 -0.910156 C 0.726562 -0.710938 0.777344 -0.554688 0.886719 -0.445312 C 0.996094 -0.335938 1.144531 -0.28125 1.335938 -0.28125 C 1.535156 -0.28125 1.683594 -0.335938 1.792969 -0.445312 C 1.898438 -0.554688 1.949219 -0.707031 1.949219 -0.910156 C 1.949219 -1.109375 1.898438 -1.265625 1.789062 -1.375 C 1.679688 -1.484375 1.53125 -1.539062 1.335938 -1.539062 Z M 0.953125 -1.722656 C 0.769531 -1.769531 0.621094 -1.859375 0.515625 -1.988281 C 0.410156 -2.117188 0.359375 -2.273438 0.359375 -2.457031 C 0.359375 -2.714844 0.449219 -2.921875 0.621094 -3.070312 C 0.796875 -3.222656 1.035156 -3.296875 1.335938 -3.296875 C 1.640625 -3.296875 1.878906 -3.222656 2.054688 -3.070312 C 2.230469 -2.921875 2.316406 -2.714844 2.316406 -2.457031 C 2.316406 -2.273438 2.261719 -2.117188 2.15625 -1.988281 C 2.050781 -1.859375 1.90625 -1.769531 1.722656 -1.722656 C 1.9375 -1.671875 2.105469 -1.578125 2.21875 -1.433594 C 2.332031 -1.289062 2.390625 -1.101562 2.390625 -0.871094 C 2.390625 -0.578125 2.296875 -0.347656 2.113281 -0.183594 C 1.925781 -0.0195312 1.667969 0.0625 1.335938 0.0625 C 1.007812 0.0625 0.75 -0.0195312 0.5625 -0.183594 C 0.378906 -0.347656 0.285156 -0.574219 0.285156 -0.867188 C 0.285156 -1.097656 0.339844 -1.285156 0.457031 -1.429688 C 0.570312 -1.574219 0.738281 -1.671875 0.953125 -1.722656 Z M 0.796875 -2.417969 C 0.796875 -2.242188 0.84375 -2.113281 0.933594 -2.019531 C 1.027344 -1.929688 1.160156 -1.882812 1.335938 -1.882812 C 1.511719 -1.882812 1.648438 -1.929688 1.742188 -2.019531 C 1.832031 -2.109375 1.878906 -2.242188 1.878906 -2.417969 C 1.878906 -2.59375 1.832031 -2.730469 1.742188 -2.820312 C 1.648438 -2.914062 1.515625 -2.960938 1.335938 -2.960938 C 1.160156 -2.960938 1.027344 -2.914062 0.933594 -2.820312 C 0.84375 -2.726562 0.796875 -2.59375 0.796875 -2.417969 Z "/>
</g>
<g id="glyph-0-7">
<path d="M 1.5625 -3.59375 L 1.5625 0.367188 L 0.640625 0.367188 L 0.640625 0.0585938 L 1.164062 0.0585938 L 1.164062 -3.285156 L 0.640625 -3.285156 L 0.640625 -3.59375 Z "/>
</g>
</g>
<image id="source-169" x="0" y="0" width="0" height="0"/>
<mask id="mask-0">
<use xlink:href="#source-169"/>
</mask>
</defs>
<g fill="rgb(100%, 100%, 0%)" fill-opacity="1">
<use xlink:href="#glyph-0-0" x="30" y="24.125"/>
<use xlink:href="#glyph-0-1" x="33" y="24.125"/>
<use xlink:href="#glyph-0-2" x="36" y="24.125"/>
<use xlink:href="#glyph-0-3" x="39" y="24.125"/>
<use xlink:href="#glyph-0-4" x="42" y="24.125"/>
<use xlink:href="#glyph-0-5" x="45" y="24.125"/>
<use xlink:href="#glyph-0-1" x="48" y="24.125"/>
<use xlink:href="#glyph-0-2" x="51" y="24.125"/>
<use xlink:href="#glyph-0-6" x="54" y="24.125"/>
<use xlink:href="#glyph-0-7" x="57" y="24.125"/>
</g>
</svg>
