<?xml version="1.0" encoding="UTF-8"?>
<svg xmlns="http://www.w3.org/2000/svg" xmlns:xlink="http://www.w3.org/1999/xlink" width="1920" height="1080" viewBox="0 0 1920 1080">
<defs>
<g>
<g id="glyph-0-0">
<path d="M 0.480469 -3.644531 L 2.644531 -3.644531 L 2.644531 -3.230469 L 0.972656 -3.230469 L 0.972656 -2.25 L 2.570312 -2.25 L 2.570312 -1.832031 L 0.972656 -1.832031 L 0.972656 -0.414062 L 2.691406 -0.414062 L 2.691406 0 L 0.480469 0 Z "/>
</g>
<g id="glyph-0-1">
<path d="M 2.730469 -2.734375 L 1.75 -1.425781 L 2.824219 0 L 2.304688 0 L 1.503906 -1.097656 L 0.707031 0 L 0.1875 0 L 1.257812 -1.425781 L 0.28125 -2.734375 L 0.777344 -2.734375 L 1.503906 -1.746094 L 2.222656 -2.734375 Z "/>
</g>
<g id="glyph-0-2">
<path d="M 0.914062 -0.34375 L 0.914062 1.039062 L 0.464844 1.039062 L 0.464844 -2.734375 L 0.914062 -2.734375 L 0.914062 -2.386719 C 0.988281 -2.519531 1.089844 -2.625 1.214844 -2.695312 C 1.339844 -2.765625 1.484375 -2.800781 1.644531 -2.800781 C 1.976562 -2.800781 2.234375 -2.671875 2.421875 -2.417969 C 2.609375 -2.160156 2.703125 -1.808594 2.703125 -1.355469 C 2.703125 -0.910156 2.609375 -0.5625 2.421875 -0.308594 C 2.234375 -0.0546875 1.972656 0.0703125 1.644531 0.0703125 C 1.480469 0.0703125 1.335938 0.0351562 1.210938 -0.0351562 C 1.085938 -0.105469 0.988281 -0.210938 0.914062 -0.34375 Z M 2.234375 -1.363281 C 2.234375 -1.710938 2.179688 -1.976562 2.070312 -2.152344 C 1.960938 -2.332031 1.796875 -2.417969 1.578125 -2.417969 C 1.359375 -2.417969 1.195312 -2.332031 1.085938 -2.152344 C 0.972656 -1.972656 0.914062 -1.710938 0.914062 -1.363281 C 0.914062 -1.019531 0.972656 -0.757812 1.085938 -0.578125 C 1.195312 -0.398438 1.363281 -0.308594 1.578125 -0.308594 C 1.796875 -0.308594 1.960938 -0.398438 2.070312 -0.578125 C 2.179688 -0.753906 2.234375 -1.015625 2.234375 -1.363281 Z "/>
</g>
<g id="glyph-0-3">
<path d="M 2.734375 -1.59375 L 2.734375 -1.371094 L 0.789062 -1.371094 L 0.789062 -1.359375 C 0.777344 -0.984375 0.847656 -0.71875 1.003906 -0.554688 C 1.15625 -0.390625 1.375 -0.308594 1.660156 -0.308594 C 1.804688 -0.308594 1.953125 -0.332031 2.109375 -0.378906 C 2.265625 -0.425781 2.433594 -0.492188 2.609375 -0.585938 L 2.609375 -0.140625 C 2.4375 -0.0703125 2.273438 -0.015625 2.117188 0.0195312 C 1.957031 0.0546875 1.804688 0.0703125 1.65625 0.0703125 C 1.230469 0.0703125 0.898438 -0.0546875 0.660156 -0.3125 C 0.421875 -0.566406 0.300781 -0.917969 0.300781 -1.363281 C 0.300781 -1.800781 0.417969 -2.148438 0.652344 -2.410156 C 0.886719 -2.671875 1.199219 -2.800781 1.589844 -2.800781 C 1.9375 -2.800781 2.210938 -2.683594 2.414062 -2.445312 C 2.613281 -2.210938 2.722656 -1.925781 2.734375 -1.59375 Z M 2.285156 -1.722656 C 2.265625 -1.914062 2.195312 -2.074219 2.078125 -2.214844 C 1.960938 -2.351562 1.792969 -2.417969 1.570312 -2.417969 C 1.351562 -2.417969 1.175781 -2.347656 1.035156 -2.203125 C 0.894531 -2.0625 0.820312 -1.898438 0.804688 -1.722656 Z "/>
</g>
<g id="glyph-0-4">
<path d="M 2.589844 -0.140625 C 2.46875 -0.0703125 2.347656 -0.015625 2.21875 0.0195312 C 2.089844 0.0546875 1.960938 0.0703125 1.828125 0.0703125 C 1.402344 0.0703125 1.070312 -0.0546875 0.832031 -0.308594 C 0.59375 -0.5625 0.476562 -0.914062 0.476562 -1.363281 C 0.476562 -1.8125 0.59375 -2.164062 0.832031 -2.417969 C 1.070312 -2.671875 1.402344 -2.800781 1.828125 -2.800781 C 1.957031 -2.800781 2.085938 -2.78125 2.210938 -2.75 C 2.335938 -2.714844 2.464844 -2.660156 2.589844 -2.589844 L 2.589844 -2.117188 C 2.472656 -2.222656 2.351562 -2.300781 2.234375 -2.347656 C 2.113281 -2.394531 1.976562 -2.417969 1.828125 -2.417969 C 1.546875 -2.417969 1.328125 -2.328125 1.175781 -2.144531 C 1.023438 -1.964844 0.949219 -1.703125 0.949219 -1.363281 C 0.949219 -1.027344 1.027344 -0.769531 1.179688 -0.585938 C 1.332031 -0.402344 1.546875 -0.308594 1.828125 -0.308594 C 1.984375 -0.308594 2.121094 -0.335938 2.246094 -0.382812 C 2.371094 -0.429688 2.484375 -0.503906 2.589844 -0.605469 Z "/>
</g>
<g id="glyph-0-5">
<path d="M 1.5 -3.511719 L 1.5 -2.734375 L 2.519531 -2.734375 L 2.519531 -2.386719 L 1.5 -2.386719 L 1.5 -0.902344 C 1.5 -0.699219 1.539062 -0.558594 1.613281 -0.476562 C 1.691406 -0.398438 1.824219 -0.359375 2.015625 -0.359375 L 2.519531 -0.359375 L 2.519531 0 L 1.96875 0 C 1.632812 0 1.394531 -0.0664062 1.257812 -0.203125 C 1.117188 -0.335938 1.050781 -0.570312 1.050781 -0.902344 L 1.050781 -2.386719 L 0.320312 -2.386719 L 0.320312 -2.734375 L 1.050781 -2.734375 L 1.050781 -3.511719 Z "/>
</g>
<g id="glyph-0-6">
<path d="M 2.09375 -2.386719 L 2.09375 -3.796875 L 2.542969 -3.796875 L 2.542969 0 L 2.09375 0 L 2.09375 -0.34375 C 2.019531 -0.210938 1.921875 -0.105469 1.796875 -0.0351562 C 1.671875 0.0351562 1.527344 0.0703125 1.363281 0.0703125 C 1.035156 0.0703125 0.773438 -0.0585938 0.585938 -0.3125 C 0.394531 -0.570312 0.300781 -0.921875 0.300781 -1.375 C 0.300781 -1.820312 0.394531 -2.167969 0.585938 -2.421875 C 0.777344 -2.675781 1.035156 -2.800781 1.363281 -2.800781 C 1.527344 -2.800781 1.675781 -2.765625 1.800781 -2.695312 C 1.925781 -2.625 2.023438 -2.519531 2.09375 -2.386719 Z M 0.773438 -1.363281 C 0.773438 -1.015625 0.828125 -0.753906 0.941406 -0.578125 C 1.050781 -0.398438 1.214844 -0.308594 1.429688 -0.308594 C 1.648438 -0.308594 1.8125 -0.398438 1.925781 -0.578125 C 2.039062 -0.757812 2.09375 -1.019531 2.09375 -1.363281 C 2.09375 -1.710938 2.039062 -1.972656 1.925781 -2.152344 C 1.8125 -2.332031 1.648438 -2.417969 1.429688 -2.417969 C 1.214844 -2.417969 1.050781 -2.332031 0.941406 -2.152344 C 0.828125 -1.976562 0.773438 -1.714844 0.773438 -1.363281 Z "/>
</g>
<g id="glyph-0-7">
<path d="M 1.046875 -2.730469 L 1.808594 -2.730469 L 1.808594 -1.851562 L 1.046875 -1.851562 Z M 1.046875 -0.890625 L 1.808594 -0.890625 L 1.808594 0 L 1.046875 0 Z "/>
</g>
<g id="glyph-0-8">
<rect x="0" y="0" width="0" height="0" mask="url(#mask-0)"/>
</g>
<g id="glyph-0-9">
<path d="M 0.660156 -0.414062 L 1.425781 -0.414062 L 1.425781 -3.167969 L 0.507812 -2.726562 L 0.507812 -3.199219 L 1.421875 -3.632812 L 1.914062 -3.632812 L 1.914062 -0.414062 L 2.671875 -0.414062 L 2.671875 0 L 0.660156 0 Z "/>
</g>
<g id="glyph-0-10">
<path d="M 0.949219 -0.984375 L 1.808594 -0.984375 L 1.808594 0 L 0.949219 0 Z "/>
</g>
<g id="glyph-0-11">
<path d="M 1.503906 -3.699219 C 1.894531 -3.699219 2.1875 -3.539062 2.386719 -3.222656 C 2.585938 -2.90625 2.6875 -2.4375 2.6875 -1.8125 C 2.6875 -1.191406 2.585938 -0.722656 2.386719 -0.40625 C 2.1875 -0.0898438 1.894531 0.0703125 1.503906 0.0703125 C 1.113281 0.0703125 0.820312 -0.0859375 0.621094 -0.40625 C 0.421875 -0.722656 0.324219 -1.191406 0.324219 -1.8125 C 0.324219 -2.433594 0.425781 -2.90625 0.621094 -3.222656 C 0.820312 -3.539062 1.113281 -3.699219 1.503906 -3.699219 Z M 1.503906 -0.320312 C 1.734375 -0.320312 1.90625 -0.441406 2.019531 -0.6875 C 2.132812 -0.933594 2.191406 -1.308594 2.191406 -1.8125 C 2.191406 -2.082031 2.171875 -2.324219 2.140625 -2.542969 L 0.980469 -0.722656 C 1.101562 -0.453125 1.277344 -0.320312 1.503906 -0.320312 Z M 1.503906 -3.308594 C 1.273438 -3.308594 1.101562 -3.183594 0.988281 -2.9375 C 0.875 -2.691406 0.820312 -2.320312 0.820312 -1.8125 C 0.820312 -1.585938 0.835938 -1.371094 0.867188 -1.167969 L 2.003906 -2.984375 C 1.878906 -3.199219 1.714844 -3.308594 1.503906 -3.308594 Z "/>
</g>
</g>
<image id="source-126" x="0" y="0" width="0" height="0"/>
<mask id="mask-0">
<use xlink:href="#source-126"/>
</mask>
</defs>
<g fill="rgb(51.372549%, 75.686275%, 40.392157%)" fill-opacity="1">
<use xlink:href="#glyph-0-0" x="30" y="24.641602"/>
<use xlink:href="#glyph-0-1" x="33" y="24.641602"/>
<use xlink:href="#glyph-0-2" x="36" y="24.641602"/>
<use xlink:href="#glyph-0-3" x="39" y="24.641602"/>
<use xlink:href="#glyph-0-4" x="42" y="24.641602"/>
<use xlink:href="#glyph-0-5" x="45" y="24.641602"/>
<use xlink:href="#glyph-0-3" x="48" y="24.641602"/>
<use xlink:href="#glyph-0-6" x="51" y="24.641602"/>
<use xlink:href="#glyph-0-7" x="54" y="24.641602"/>
<use xlink:href="#glyph-0-8" x="57" y="24.641602"/>
<use xlink:href="#glyph-0-9" x="60" y="24.641602"/>
<use xlink:href="#glyph-0-10" x="63" y="24.641602"/>
<use xlink:href="#glyph-0-11" x="66" y="24.641602"/>
</g>
</svg>
