<?xml version="1.0" encoding="UTF-8"?>
<svg xmlns="http://www.w3.org/2000/svg" xmlns:xlink="http://www.w3.org/1999/xlink" width="1920" height="1080" viewBox="0 0 1920 1080">
<defs>
<g>
<g id="glyph-0-0">
<path d="M 0 -3.039062 L 0.660156 -3.039062 L 1.023438 -0.710938 L 1.351562 -2.242188 L 1.992188 -2.242188 L 2.316406 -0.710938 L 2.683594 -3.039062 L 3.34375 -3.039062 L 2.792969 0 L 2.039062 0 L 1.671875 -1.578125 L 1.304688 0 L 0.550781 0 Z "/>
</g>
<g id="glyph-0-1">
<rect x="0" y="0" width="0" height="0" mask="url(#mask-0)"/>
</g>
<g id="glyph-0-2">
<path d="M 0.238281 -1.441406 L 3.105469 -1.441406 L 3.105469 -0.800781 L 0.238281 -0.800781 Z M 0.238281 -2.675781 L 3.105469 -2.675781 L 3.105469 -2.039062 L 0.238281 -2.039062 Z "/>
</g>
<g id="glyph-0-3">
<path d="M 0.332031 -2.019531 C 0.332031 -2.722656 0.445312 -3.25 0.667969 -3.597656 C 0.890625 -3.949219 1.222656 -4.125 1.671875 -4.125 C 2.121094 -4.125 2.453125 -3.949219 2.675781 -3.601562 C 2.898438 -3.25 3.011719 -2.722656 3.011719 -2.019531 C 3.011719 -1.320312 2.898438 -0.792969 2.675781 -0.445312 C 2.453125 -0.0976562 2.121094 0.078125 1.671875 0.078125 C 1.226562 0.078125 0.890625 -0.0976562 0.667969 -0.445312 C 0.445312 -0.796875 0.332031 -1.320312 0.332031 -2.019531 Z M 1.265625 -0.9375 C 1.351562 -0.710938 1.488281 -0.597656 1.671875 -0.597656 C 1.859375 -0.597656 1.992188 -0.710938 2.078125 -0.9375 C 2.164062 -1.164062 2.207031 -1.527344 2.207031 -2.019531 C 2.207031 -2.207031 2.199219 -2.378906 2.1875 -2.527344 L 1.238281 -1.015625 C 1.25 -0.988281 1.257812 -0.960938 1.265625 -0.9375 Z M 1.671875 -3.445312 C 1.488281 -3.445312 1.351562 -3.332031 1.265625 -3.105469 C 1.179688 -2.878906 1.140625 -2.519531 1.140625 -2.019531 C 1.140625 -1.867188 1.144531 -1.726562 1.148438 -1.601562 L 2.082031 -3.089844 C 2.082031 -3.09375 2.078125 -3.101562 2.078125 -3.105469 C 1.992188 -3.332031 1.855469 -3.445312 1.671875 -3.445312 Z "/>
</g>
<g id="glyph-0-4">
<path d="M 1.21875 -0.996094 L 2.121094 -0.996094 L 2.121094 0 L 1.21875 0 Z "/>
</g>
<g id="glyph-0-5">
<path d="M 1.882812 -3.160156 L 0.859375 -1.558594 L 1.882812 -1.558594 Z M 1.8125 -4.050781 L 2.648438 -4.050781 L 2.648438 -1.558594 L 3.09375 -1.558594 L 3.09375 -0.875 L 2.648438 -0.875 L 2.648438 0 L 1.882812 0 L 1.882812 -0.875 L 0.277344 -0.875 L 0.277344 -1.648438 Z "/>
</g>
<g id="glyph-0-6">
<path d="M 0.511719 -0.707031 L 1.40625 -0.707031 L 1.40625 -3.332031 L 0.574219 -3.128906 L 0.574219 -3.847656 L 1.410156 -4.050781 L 2.183594 -4.050781 L 2.183594 -0.707031 L 3.078125 -0.707031 L 3.078125 0 L 0.511719 0 Z "/>
</g>
<g id="glyph-0-7">
<path d="M 1.175781 -0.707031 L 2.882812 -0.707031 L 2.882812 0 L 0.3125 0 L 0.3125 -0.683594 L 0.746094 -1.144531 C 1.261719 -1.691406 1.574219 -2.03125 1.683594 -2.15625 C 1.820312 -2.3125 1.917969 -2.449219 1.976562 -2.570312 C 2.035156 -2.691406 2.066406 -2.808594 2.066406 -2.925781 C 2.066406 -3.109375 2.011719 -3.246094 1.902344 -3.347656 C 1.792969 -3.445312 1.636719 -3.492188 1.4375 -3.492188 C 1.292969 -3.492188 1.132812 -3.464844 0.957031 -3.410156 C 0.777344 -3.351562 0.59375 -3.269531 0.398438 -3.160156 L 0.398438 -3.90625 C 0.59375 -3.976562 0.78125 -4.03125 0.96875 -4.066406 C 1.152344 -4.105469 1.332031 -4.125 1.5 -4.125 C 1.929688 -4.125 2.265625 -4.023438 2.511719 -3.824219 C 2.757812 -3.625 2.878906 -3.351562 2.878906 -3.003906 C 2.878906 -2.847656 2.851562 -2.699219 2.796875 -2.558594 C 2.746094 -2.417969 2.652344 -2.265625 2.523438 -2.09375 C 2.425781 -1.972656 2.164062 -1.695312 1.734375 -1.265625 C 1.5 -1.03125 1.316406 -0.84375 1.175781 -0.707031 Z "/>
</g>
</g>
<image id="source-379" x="0" y="0" width="0" height="0"/>
<mask id="mask-0">
<use xlink:href="#source-379"/>
</mask>
</defs>
<g fill="rgb(100%, 100%, 0%)" fill-opacity="1">
<use xlink:href="#glyph-0-0" x="30" y="25.157227"/>
<use xlink:href="#glyph-0-1" x="33" y="25.157227"/>
<use xlink:href="#glyph-0-2" x="36" y="25.157227"/>
<use xlink:href="#glyph-0-1" x="39" y="25.157227"/>
<use xlink:href="#glyph-0-3" x="42" y="25.157227"/>
<use xlink:href="#glyph-0-4" x="45" y="25.157227"/>
<use xlink:href="#glyph-0-5" x="48" y="25.157227"/>
<use xlink:href="#glyph-0-3" x="51" y="25.157227"/>
<use xlink:href="#glyph-0-6" x="54" y="25.157227"/>
<use xlink:href="#glyph-0-7" x="57" y="25.157227"/>
</g>
</svg>
