<?xml version="1.0" encoding="UTF-8"?>
<svg xmlns="http://www.w3.org/2000/svg" xmlns:xlink="http://www.w3.org/1999/xlink" width="1920" height="1080" viewBox="0 0 1920 1080">
<defs>
<g>
<g id="glyph-0-0">
<path d="M 2.664062 -2.136719 L 2.433594 -2.136719 C 2.027344 -2.136719 1.71875 -2.066406 1.511719 -1.921875 C 1.304688 -1.78125 1.203125 -1.566406 1.203125 -1.285156 C 1.203125 -1.027344 1.28125 -0.828125 1.433594 -0.6875 C 1.589844 -0.546875 1.804688 -0.476562 2.078125 -0.476562 C 2.460938 -0.476562 2.765625 -0.609375 2.984375 -0.875 C 3.203125 -1.140625 3.316406 -1.511719 3.320312 -1.980469 L 3.320312 -2.136719 Z M 4.023438 -2.425781 L 4.023438 0 L 3.320312 0 L 3.320312 -0.628906 C 3.171875 -0.375 2.980469 -0.191406 2.753906 -0.0703125 C 2.527344 0.0507812 2.253906 0.109375 1.929688 0.109375 C 1.496094 0.109375 1.152344 -0.0117188 0.890625 -0.257812 C 0.632812 -0.5 0.503906 -0.828125 0.503906 -1.238281 C 0.503906 -1.710938 0.664062 -2.070312 0.980469 -2.316406 C 1.300781 -2.5625 1.765625 -2.683594 2.382812 -2.683594 L 3.320312 -2.683594 L 3.320312 -2.796875 C 3.316406 -3.136719 3.230469 -3.378906 3.0625 -3.535156 C 2.890625 -3.6875 2.621094 -3.761719 2.25 -3.761719 C 2.011719 -3.761719 1.769531 -3.730469 1.527344 -3.660156 C 1.285156 -3.59375 1.046875 -3.492188 0.816406 -3.359375 L 0.816406 -4.058594 C 1.074219 -4.15625 1.320312 -4.230469 1.558594 -4.28125 C 1.796875 -4.332031 2.023438 -4.355469 2.25 -4.355469 C 2.601562 -4.355469 2.902344 -4.304688 3.148438 -4.199219 C 3.398438 -4.097656 3.601562 -3.941406 3.753906 -3.734375 C 3.851562 -3.605469 3.921875 -3.449219 3.960938 -3.265625 C 4 -3.078125 4.023438 -2.796875 4.023438 -2.425781 Z "/>
</g>
</g>
</defs>
<g fill="rgb(34.509804%, 76.862745%, 86.666667%)" fill-opacity="1">
<use xlink:href="#glyph-0-0" x="30" y="27.21875"/>
</g>
</svg>
